<?xml version="1.0" encoding="UTF-8"?><svg xmlns="http://www.w3.org/2000/svg" viewBox="0 0 736.29 592.57"><defs><style>.cls-1{isolation:isolate;}.cls-2{fill:none;}.cls-2,.cls-3,.cls-4,.cls-5,.cls-6,.cls-7{stroke-width:0px;}.cls-3{fill:#55b848;}.cls-4{fill:#65cbe4;}.cls-8{mix-blend-mode:multiply;}.cls-5{fill:#ffce28;}.cls-6{fill:#3f86c7;}.cls-7{fill:#fbea2f;}</style></defs><g class="cls-1"><g id="Layer_2"><path class="cls-2" d="m260.94,372.05c15.95,17.29,30.44,34.84,43.36,52.43,2.66-15.89,5.89-31.99,9.56-47.63-18.26-.99-36.05-2.59-52.92-4.8Z"/><path class="cls-5" d="m401.48,585.41c-1.57.7-3.15,1.37-4.78,1.95,1.61-.6,3.2-1.25,4.78-1.95Z"/><path class="cls-5" d="m354.32,591.43c-1.16-.2-2.3-.38-3.49-.63,1.16.25,2.32.43,3.49.63Z"/><path class="cls-5" d="m360.95,592.26c-1.27-.1-2.53-.19-3.81-.36,1.26.16,2.54.25,3.81.36Z"/><path class="cls-5" d="m404.49,584.03c-.42.2-.83.41-1.25.6.42-.2.83-.4,1.25-.6Z"/><path class="cls-5" d="m375.88,592.16c.26-.03.52-.07.78-.1-.1,0-.19.01-.29.02-.16.02-.32.05-.49.08Z"/><path class="cls-5" d="m377.7,591.93c6.4-.77,12.71-2.27,18.78-4.49-5.98,2.13-12.33,3.53-18.78,4.44,0,.02,0,.04,0,.05Z"/><path class="cls-5" d="m363.04,592.45c4.25.24,8.53.13,12.79-.28,0-.01,0-.03,0-.04-4.46.4-8.63.53-12.79.32Z"/><g class="cls-8"><path class="cls-6" d="m375.83,592.16s.03,0,.05,0c-.02,0-.04,0-.05,0,0,0,0,0,0,0Z"/></g><g class="cls-8"><path class="cls-6" d="m396.7,587.36c-.07.03-.15.05-.22.08.07-.03.15-.05.22-.08Z"/></g><g class="cls-8"><path class="cls-6" d="m402.49,585c.25-.12.51-.25.76-.36-.58.28-1.18.52-1.77.78.33-.15.68-.26,1.01-.41Z"/></g><g class="cls-8"><path class="cls-6" d="m377.71,591.98s0-.03,0-.05c-.35.04-.69.09-1.04.13.35-.02.68-.04,1.05-.08Z"/></g><g class="cls-8"><path class="cls-6" d="m363.04,592.45c-.7-.04-1.39-.13-2.09-.19.69.05,1.39.16,2.09.19Z"/></g><path class="cls-7" d="m260.94,372.05c16.87,2.21,34.66,3.81,52.92,4.8-3.67,15.64-6.89,31.74-9.56,47.63,35.27,47.99,58.96,96.14,68.82,139.22-3.81-87.57,30.32-202.54,98.23-316.43,22.32-37.43,46.76-71.67,72.34-102.17-50.52-57.85-119-105.61-174.37-105.38-93.51.38-216.31,133.53-238.16,225.29,37.36,22.3,75.38,51.79,111.16,87.57,6.44,6.44,12.6,12.94,18.63,19.47Z"/><path class="cls-4" d="m732.87,0c-60.71,21.14-128.19,72.38-189.18,145.1,56.08,64.21,90.03,140.86,59.3,178.15-23.2,28.15-94.46,45.8-174.81,52.16,14.73,60.55,22.83,128.06,14.16,162.33-5.55,21.92-20.05,37.47-37.84,46.28,79.64-37.72,167.23-122.43,235.18-236.39C715.22,220.95,747.44,90.07,732.87,0"/><path class="cls-4" d="m0,217.15c6.14,70.1,54.99,161.87,135.43,242.31,70.31,70.31,149.23,116.62,214.82,131.23.2.04.38.06.58.1-24.81-5.32-46.31-22.7-51.97-53.05-4.92-26.38-1.97-69,5.45-113.26-12.92-17.59-27.41-35.14-43.36-52.43-61.24-8.02-110.31-24.13-125.29-48.8-9.13-15.03-9.94-35.36-4.49-58.24C84.52,237.18,38.92,220.56,0,217.15"/><g class="cls-8"><path class="cls-6" d="m357.14,591.9c-.95-.12-1.89-.32-2.83-.47.94.16,1.9.35,2.83.47Z"/></g><path class="cls-5" d="m135.65,323.26c14.99,24.67,64.05,40.78,125.29,48.8-6.03-6.53-12.19-13.04-18.63-19.48-35.78-35.78-73.8-65.27-111.16-87.57-5.45,22.89-4.64,43.21,4.49,58.24Z"/><path class="cls-5" d="m442.34,537.75c8.67-34.27.57-101.78-14.16-162.33,80.35-6.36,151.61-24.01,174.81-52.16,30.73-37.29-3.22-113.94-59.3-178.15-25.58,30.49-50.02,64.74-72.34,102.16-67.9,113.89-102.03,228.86-98.23,316.43-9.86-43.07-33.55-91.22-68.82-139.21-7.42,44.27-10.37,86.89-5.45,113.26,5.66,30.35,27.16,47.73,51.97,53.05,1.19.26,2.34.43,3.49.63.94.16,1.88.35,2.83.47,1.28.17,2.54.26,3.81.36.7.06,1.39.15,2.09.19,4.15.21,8.32.08,12.79-.33,0,.01,0,.03,0,.04.02,0,.04,0,.05,0,.16-.02.32-.05.49-.08.1,0,.19-.02.29-.02.35-.04.69-.09,1.04-.13,0-.02,0-.03,0-.05,6.46-.9,12.8-2.31,18.78-4.44.07-.03.15-.05.22-.08,1.63-.58,3.21-1.26,4.78-1.95.59-.26,1.19-.5,1.77-.78.41-.19.83-.4,1.25-.6,17.79-8.81,32.3-24.36,37.84-46.28Z"/><path class="cls-3" d="m135.65,323.26c14.99,24.67,64.05,40.78,125.29,48.8-6.03-6.53-12.19-13.04-18.63-19.48-35.78-35.78-73.8-65.27-111.16-87.57-5.45,22.89-4.64,43.21,4.49,58.24Z"/><path class="cls-3" d="m442.34,537.75c8.67-34.27.57-101.78-14.16-162.33,80.35-6.36,151.61-24.01,174.81-52.16,30.73-37.29-3.22-113.94-59.3-178.15-25.58,30.49-50.02,64.74-72.34,102.16-67.9,113.89-102.03,228.86-98.23,316.43-9.86-43.07-33.55-91.22-68.82-139.21-7.42,44.27-10.37,86.89-5.45,113.26,5.66,30.35,27.16,47.73,51.97,53.05,1.19.26,2.34.43,3.49.63.94.16,1.88.35,2.83.47,1.28.17,2.54.26,3.81.36.7.06,1.39.15,2.09.19,4.15.21,8.32.08,12.79-.33,0,.01,0,.03,0,.04.02,0,.04,0,.05,0,.16-.02.32-.05.49-.08.1,0,.19-.02.29-.02.35-.04.69-.09,1.04-.13,0-.02,0-.03,0-.05,6.46-.9,12.8-2.31,18.78-4.44.07-.03.15-.05.22-.08,1.63-.58,3.21-1.26,4.78-1.95.59-.26,1.19-.5,1.77-.78.41-.19.83-.4,1.25-.6,17.79-8.81,32.3-24.36,37.84-46.28Z"/></g></g></svg>