<svg width="24" height="24" viewBox="0 0 24 24" fill="none" xmlns="http://www.w3.org/2000/svg">
<g clip-path="url(#clip0_1368_57)">
<path d="M12 0C18.628 0 24 5.37305 24 12C24 18.628 18.628 24 12 24C5.37305 24 0 18.6275 0 12C0 5.37305 5.37305 0 12 0Z" fill="#F5AC37"/>
<path d="M12.4423 12.8472H17.0021C17.0993 12.8472 17.1452 12.8472 17.1522 12.7198C17.1895 12.2559 17.1895 11.7894 17.1522 11.325C17.1522 11.2348 17.1074 11.1975 17.0097 11.1975H7.93489C7.82257 11.1975 7.79233 11.2348 7.79233 11.3401V12.675C7.79233 12.8472 7.79233 12.8472 7.97215 12.8472H12.4423ZM16.643 9.63745C16.656 9.60343 16.656 9.56617 16.643 9.53269C16.5669 9.36691 16.4767 9.20869 16.3719 9.06019C16.2143 8.80638 16.0285 8.57256 15.8168 8.3625C15.7169 8.2356 15.6014 8.12166 15.4717 8.025C14.8227 7.47257 14.051 7.08161 13.2215 6.88505C12.803 6.79108 12.3754 6.74626 11.9466 6.75004H7.91923C7.80691 6.75004 7.79179 6.79486 7.79179 6.89261V9.55483C7.79179 9.66715 7.79179 9.69739 7.93435 9.69739H16.589C16.589 9.69739 16.6641 9.68227 16.6792 9.63745H16.6425H16.643ZM16.643 14.4073C16.5156 14.3933 16.3871 14.3933 16.2596 14.4073H7.94245C7.83013 14.4073 7.79233 14.4073 7.79233 14.5574V17.1603C7.79233 17.2801 7.79233 17.3104 7.94245 17.3104H11.7824C11.966 17.3244 12.1496 17.3115 12.3295 17.2731C12.8867 17.2332 13.4348 17.1122 13.9576 16.9129C14.1477 16.8471 14.3313 16.7612 14.5046 16.6581H14.557C15.4572 16.1899 16.1883 15.4544 16.6495 14.5515C16.6495 14.5515 16.7019 14.4381 16.643 14.4084V14.4073ZM6.28518 18.6599V18.615V16.8676V16.2752V14.5126C6.28518 14.4149 6.28518 14.4003 6.1653 14.4003H4.53772C4.44754 14.4003 4.41028 14.4003 4.41028 14.2804V12.8553H6.15018C6.24738 12.8553 6.28518 12.8553 6.28518 12.7279V11.3179C6.28518 11.2278 6.28518 11.2056 6.1653 11.2056H4.53772C4.44754 11.2056 4.41028 11.2056 4.41028 11.0857V9.76597C4.41028 9.68335 4.41028 9.66121 4.53016 9.66121H6.14262C6.25494 9.66121 6.28518 9.66121 6.28518 9.51865V5.47617C6.28518 5.35629 6.28518 5.32605 6.4353 5.32605H12.06C12.4682 5.34225 12.8738 5.38707 13.275 5.46105C14.1018 5.61387 14.8961 5.90926 15.6224 6.331C16.1041 6.6145 16.5474 6.95687 16.9422 7.35107C17.2392 7.65941 17.507 7.99314 17.7446 8.34846C17.9806 8.70864 18.1766 9.09367 18.3305 9.49597C18.3494 9.60073 18.4499 9.67147 18.5546 9.65365H19.8971C20.0694 9.65365 20.0694 9.65365 20.0769 9.8189V11.049C20.0769 11.1689 20.0321 11.1991 19.9117 11.1991H18.8765C18.7717 11.1991 18.7415 11.1991 18.749 11.3342C18.7901 11.791 18.7901 12.2495 18.749 12.7063C18.749 12.8337 18.749 12.8489 18.8921 12.8489H20.0764C20.1288 12.9164 20.0764 12.9839 20.0764 13.0519C20.0839 13.1388 20.0839 13.2269 20.0764 13.3138V14.2216C20.0764 14.349 20.0391 14.3868 19.9263 14.3868H18.5087C18.4099 14.3679 18.3138 14.4311 18.2911 14.5294C17.9536 15.4069 17.4136 16.1937 16.7159 16.8244C16.461 17.0539 16.1932 17.2699 15.9135 17.4692C15.6132 17.642 15.3211 17.8218 15.0133 17.9643C14.4468 18.2192 13.8528 18.4071 13.2431 18.5265C12.6643 18.6302 12.0773 18.6771 11.4881 18.669H6.28302V18.6615L6.28518 18.6599Z" fill="#FEFEFD"/>
</g>
<defs>
<clipPath id="clip0_1368_57">
<rect width="24" height="24" fill="white"/>
</clipPath>
</defs>
</svg>
