<svg width="24" height="24" viewBox="0 0 24 24" fill="none" xmlns="http://www.w3.org/2000/svg">
<g clip-path="url(#clip0_1185_49)">
<path d="M12 24C18.6274 24 24 18.6274 24 12C24 5.37258 18.6274 0 12 0C5.37258 0 0 5.37258 0 12C0 18.6274 5.37258 24 12 24Z" fill="url(#paint0_linear_1185_49)"/>
<path d="M18.1952 16.0675L16.5246 15.1057C16.5015 15.0926 16.4753 15.0856 16.4487 15.0855C16.4348 15.0856 16.4211 15.0874 16.4077 15.091C16.3882 15.0965 16.37 15.1058 16.3542 15.1184C16.3384 15.131 16.3252 15.1467 16.3156 15.1644C16.172 15.4275 15.9935 15.67 15.785 15.8853C15.504 16.176 15.1818 16.4238 14.8288 16.6208C14.4879 16.8099 14.1222 16.9503 13.7424 17.038C13.3854 17.1224 13.0199 17.1663 12.653 17.1686C12.0065 17.1745 11.3682 17.0232 10.7932 16.7277C10.2408 16.442 9.75109 16.0487 9.35297 15.5709C9.15852 15.3365 8.9857 15.0848 8.83662 14.8192L8.64021 14.4704H12.8813C12.9216 14.4704 12.9602 14.4544 12.9887 14.4259C13.0172 14.3974 13.0332 14.3588 13.0332 14.3185V12.9973C13.0332 12.957 13.0172 12.9184 12.9887 12.8899C12.9602 12.8614 12.9216 12.8454 12.8813 12.8454H8.16841L8.14512 12.6369C8.12005 12.4118 8.10737 12.1855 8.10716 11.959C8.10716 11.7692 8.11728 11.5703 8.13753 11.3668L8.15879 11.1557H12.8813C12.9216 11.1557 12.9602 11.1397 12.9887 11.1112C13.0172 11.0827 13.0332 11.0441 13.0332 11.0038V9.68256C13.0332 9.64228 13.0172 9.60365 12.9887 9.57517C12.9602 9.54669 12.9216 9.53069 12.8813 9.53069H8.59515L8.77689 9.18697C8.90542 8.94305 9.05374 8.71009 9.22034 8.49041C9.59739 7.99757 10.0751 7.59066 10.6216 7.29673C11.1855 6.98895 11.8542 6.83253 12.6095 6.83253C12.9681 6.83407 13.3255 6.87412 13.6756 6.952C14.0419 7.03329 14.3959 7.1623 14.7285 7.33571C15.3517 7.66731 15.87 8.16627 16.2249 8.77642C16.2355 8.79443 16.2497 8.81007 16.2666 8.82235C16.2835 8.83463 16.3027 8.84329 16.3231 8.8478C16.3338 8.85023 16.3446 8.85142 16.3555 8.85134C16.3865 8.85142 16.4167 8.84206 16.4421 8.82451L17.9937 7.75588C18.0254 7.73405 18.0476 7.70101 18.0559 7.66342C18.0642 7.62583 18.0578 7.5865 18.0382 7.55339C17.5786 6.78039 16.9215 6.13293 16.0852 5.62974C15.1386 5.06024 13.9971 4.76917 12.6935 4.76917C11.5874 4.76917 10.5892 4.97773 9.72605 5.38878C8.90192 5.77178 8.16142 6.31357 7.54694 6.98312C6.93246 7.65267 6.45607 8.43684 6.14504 9.29074C6.13998 9.3034 6.13593 9.31605 6.13188 9.32871V9.33225C6.12783 9.34542 6.12327 9.35858 6.11821 9.37174L6.06252 9.52766H2.80043C2.76015 9.52766 2.72152 9.54366 2.69304 9.57214C2.66456 9.60062 2.64856 9.63924 2.64856 9.67952V11.0008C2.64856 11.041 2.66456 11.0797 2.69304 11.1081C2.72152 11.1366 2.76015 11.1526 2.80043 11.1526H5.70513L5.68843 11.4022C5.67678 11.5819 5.67121 11.7317 5.67121 11.873C5.67121 12.1084 5.68336 12.3478 5.70665 12.5847L5.73196 12.8424H2.80043C2.76015 12.8424 2.72152 12.8584 2.69304 12.8869C2.66456 12.9154 2.64856 12.954 2.64856 12.9943V14.3155C2.64856 14.3558 2.66456 14.3944 2.69304 14.4229C2.72152 14.4514 2.76015 14.4674 2.80043 14.4674H6.14959L6.20882 14.6152C6.54057 15.4559 7.0157 16.2327 7.61308 16.9109C8.2268 17.6031 8.96654 18.1722 9.79288 18.588C10.6256 19.0112 11.5596 19.2259 12.568 19.2259C13.1643 19.2229 13.7581 19.1487 14.3367 19.0046C14.9271 18.8618 15.4973 18.6459 16.0341 18.3617C16.5525 18.0871 17.0297 17.7408 17.4515 17.3331C17.773 17.0232 18.0435 16.6644 18.2529 16.27C18.2713 16.2354 18.2756 16.1949 18.2648 16.1572C18.254 16.1194 18.2291 16.0873 18.1952 16.0675Z" fill="white"/>
</g>
<defs>
<linearGradient id="paint0_linear_1185_49" x1="5.99924" y1="1.60624" x2="18.0008" y2="22.3938" gradientUnits="userSpaceOnUse">
<stop stop-color="#0095D7"/>
<stop offset="1" stop-color="#0072AA"/>
</linearGradient>
<clipPath id="clip0_1185_49">
<rect width="24" height="24" fill="white"/>
</clipPath>
</defs>
</svg>
