<svg width="229" height="115" viewBox="0 0 229 115" fill="none" xmlns="http://www.w3.org/2000/svg">
<path fill-rule="evenodd" clip-rule="evenodd" d="M198.467 115H229C229 113.717 228.979 112.439 228.938 111.167H205.117L228.689 106.457C228.491 103.752 228.2 101.073 227.819 98.4235L205.474 102.888L227.077 93.9003C226.556 91.0788 225.933 88.2936 225.211 85.5485L204.069 94.3439L223.92 81.022C223.025 78.111 222.018 75.2495 220.904 72.4423L200.816 85.9236L218.917 67.7432C217.59 64.7897 216.142 61.9026 214.58 59.0883L195.723 78.0278L211.643 54.0972C209.825 51.1773 207.879 48.3452 205.815 45.6089L188.878 71.0668L201.564 40.307C199.204 37.5351 196.716 34.8773 194.107 32.3428L181.167 63.7213C192.018 77.9305 198.467 95.7088 198.467 115ZM30.5333 115C30.5333 112.677 30.6268 110.376 30.8103 108.1H0.202672C0.0681929 110.383 0 112.684 0 115H30.5333ZM32.8234 95.3555L2.8545 89.3683C3.85456 84.9557 5.10729 80.6397 6.59659 76.4364L36.9916 82.5087C35.2749 86.635 33.8753 90.9275 32.8234 95.3555ZM42.8163 71.0612L14.3482 59.2178C16.488 55.3507 18.8433 51.6205 21.398 48.0435L50.66 60.2172C47.7714 63.6095 45.1463 67.2348 42.8163 71.0612ZM59.3251 51.428L33.275 33.9459C36.3293 30.8586 39.5569 27.9444 42.9419 25.2193L70.0715 43.4259C66.2755 45.8078 62.6827 48.4859 59.3251 51.428ZM80.1227 38.0358L57.4531 15.2672C61.1582 13.1248 64.9938 11.1846 68.9452 9.46175L92.8702 33.4912C88.4685 34.6665 84.2089 36.1918 80.1227 38.0358ZM102.717 31.4905L84.4325 4.00606C88.5014 2.89681 92.6603 2.00724 96.8959 1.3508L116.413 30.6881C115.777 30.6738 115.139 30.6667 114.5 30.6667C110.501 30.6667 106.567 30.9475 102.717 31.4905ZM124.665 31.2783L111.778 0.031856C112.683 0.0106578 113.59 0 114.5 0C117.812 0 121.09 0.141203 124.331 0.417943L138.212 34.0763C133.834 32.7843 129.308 31.841 124.665 31.2783ZM144.113 36.0609L137.428 2.30606C141.476 3.13256 145.448 4.17365 149.329 5.41698L156.575 42.002C152.614 39.6945 148.449 37.7027 144.113 36.0609ZM160.046 44.1393V9.45783C163.712 11.0558 167.278 12.8408 170.732 14.8007V52.3704C167.401 49.3515 163.828 46.5968 160.046 44.1393ZM172.258 53.788L178.961 19.9426C182.122 22.1088 185.169 24.4298 188.091 26.8949L180.874 63.3399C178.246 59.939 175.365 56.7455 172.258 53.788Z" fill="#FBFF3A"/>
<path fill-rule="evenodd" clip-rule="evenodd" d="M167.933 115H198.467C198.467 113.532 198.429 112.073 198.355 110.624L183.167 110.357L198.151 107.636C197.836 103.984 197.29 100.398 196.527 96.8938L179.323 100.018L195.721 93.5306C194.83 90.1203 193.732 86.7944 192.44 83.5673L173.674 90.992L190.864 79.8861C189.457 76.8034 187.87 73.8205 186.116 70.9511L166.593 83.5641L183.597 67.0712C181.749 64.3889 179.751 61.8194 177.613 59.3751L158.469 77.9435L173.985 55.4795C171.782 53.2591 169.457 51.1613 167.021 49.1971L149.723 74.2416L162.145 45.5483C159.682 43.8407 157.124 42.2619 154.48 40.8215L142.23 69.1169C157.641 78.5323 167.933 95.5589 167.933 115ZM61.0665 115H30.5332C30.5332 113.575 30.5684 112.158 30.638 110.75L61.1925 111.286C61.109 112.513 61.0665 113.752 61.0665 115ZM148.279 37.7687C145.66 36.6116 142.971 35.5849 140.221 34.6969L133.692 64.8989C136.44 65.9616 139.079 67.2457 141.586 68.7297L148.279 37.7687ZM132.725 32.6586C130.064 32.0671 127.355 31.6024 124.606 31.2712L124.068 62.1913C126.851 62.6966 129.559 63.4184 132.174 64.3387L132.725 32.6586ZM114.5 30.6666C112.36 30.6666 110.238 30.7471 108.138 30.9051L113.618 61.3405C113.911 61.3357 114.205 61.3333 114.5 61.3333C116.903 61.3333 119.268 61.4926 121.587 61.8012L115.984 30.6795C115.49 30.6709 114.995 30.6666 114.5 30.6666ZM98.5667 63.7597L81.66 37.3605C79.4886 38.2882 77.3641 39.3051 75.291 40.4066L91.9073 66.3523C94.0533 65.3452 96.2769 64.4772 98.5667 63.7597ZM87.3617 68.7604L65.7754 46.3096C63.9674 47.6055 62.2129 48.9717 60.5155 50.4041L81.8066 72.5479C83.5734 71.1733 85.4285 69.9075 87.3617 68.7604ZM51.9463 58.7412C50.5548 60.3009 49.2202 61.913 47.9459 63.5741L73.0836 81.0888C74.4115 79.4547 75.8334 77.9007 77.341 76.435L51.9463 58.7412ZM41.023 74.1512C40.0769 75.8644 39.1884 77.6141 38.3602 79.3977L66.3827 91.6354C67.2403 89.857 68.1928 88.1334 69.2336 86.4711L41.023 74.1512ZM33.749 91.8053C33.2502 93.5602 32.8066 95.3384 32.4203 97.138L62.2646 103.646C62.6519 101.84 63.1296 100.068 63.6928 98.3352L33.749 91.8053ZM110.207 61.504C107.657 61.7076 105.158 62.0909 102.722 62.6413L91.444 33.8856C93.8204 33.2055 96.2398 32.6279 98.6972 32.1579L110.207 61.504Z" fill="#FBFF3A"/>
<path fill-rule="evenodd" clip-rule="evenodd" d="M163.671 115L167.933 114.851C167.931 113.994 167.908 113.142 167.867 112.296L141.965 113.204L141.512 113.13L167.347 107.02C167.202 106.045 167.031 105.079 166.835 104.122L142.3 109.924L165.598 99.2603C165.273 98.1925 164.915 97.1388 164.526 96.1004L142.706 106.087L162.637 91.6767C162.095 90.551 161.516 89.4472 160.9 88.367L142.138 101.932L158.408 84.4088C157.621 83.2708 156.79 82.1649 155.92 81.0933L140.496 97.7057L152.859 77.6396C151.804 76.5466 150.702 75.4985 149.558 74.4986L137.738 93.6822L145.954 71.6124C144.62 70.6351 143.239 69.7183 141.815 68.8661L133.895 90.1412L137.705 66.6448C136.1 65.8663 134.45 65.166 132.76 64.5489L129.061 87.3604L128.219 63.1186C126.375 62.6282 124.492 62.2342 122.576 61.9424L123.399 85.5911L117.734 61.4301C116.664 61.3659 115.586 61.3334 114.5 61.3334C113.523 61.3334 112.551 61.3597 111.587 61.4118L117.13 85.0559L106.629 61.9116C104.457 62.2335 102.329 62.6866 100.251 63.2626L110.53 85.9165L95.4314 64.8515C93.2787 65.6776 91.1929 66.6396 89.1842 67.727L103.916 88.2804L84.8025 70.3787C82.7975 71.7274 80.8885 73.2089 79.0879 74.8105L97.6253 92.1724L75.4371 78.382C73.7162 80.233 72.1241 82.2065 70.6754 84.2881L92.0117 97.549L68.0051 88.5341C66.7072 90.8293 65.573 93.2299 64.6182 95.7201L87.4181 104.282L63.0948 100.303C62.3484 102.942 61.7979 105.663 61.4603 108.451L84.1564 112.163L61.1039 112.972C61.079 113.645 61.0664 114.321 61.0664 115H91.5998C91.5998 102.297 101.852 92 114.5 92C127.147 92 137.4 102.297 137.4 115L163.671 115Z" fill="#FBFF3A"/>
</svg>
