<svg width="16" height="14" viewBox="0 0 16 14" fill="none" xmlns="http://www.w3.org/2000/svg">
<g id="color black_1">
<path id="Caminho 15980" d="M14.6539 0.105963C14.6539 0.105963 11.3181 1.02613 10.0564 1.38444C8.79475 1.74276 8.0125 4.44099 8.00409 4.46455L4.30347 5.50248C4.30347 5.50248 2.95752 5.76995 2.95752 7.16132C2.95752 8.48186 4.30347 7.98559 4.30347 7.98559C4.30347 7.98559 4.94776 7.81734 6.20605 7.45571C7.46434 7.09407 8.00095 4.48996 8.00431 4.46641L14.6541 2.61599C14.6541 2.61599 16 2.3282 16 0.933768C16.0064 -0.390269 14.6539 0.105963 14.6539 0.105963Z" fill="#fff"/>
<path id="Caminho 15981" d="M1.35605 13.8933L6.20413 12.5257C7.45738 12.1691 7.99726 9.55995 8.00408 9.53472L11.7049 8.49678C11.7049 8.49678 13.0509 8.22932 13.0509 6.83812C13.0509 5.51926 11.695 5.98693 11.695 5.98693C11.695 5.98693 11.0524 6.15518 9.79411 6.51681C8.53582 6.87845 7.99921 9.51116 7.99416 9.53472L1.34595 11.3852C1.34595 11.3852 0 11.6745 0 13.0674C0.00371908 14.3913 1.35605 13.8933 1.35605 13.8933Z" fill="#fff"/>
</g>
</svg>
