<svg width="32" height="32" viewBox="0 0 32 32" fill="none" xmlns="http://www.w3.org/2000/svg">
<g clip-path="url(#clip0_119_6690)">
<path d="M10.841 10.4585L8.36225 5.3748C8.13167 4.88375 8.36225 4.36383 8.90988 4.24829L26.4629 0.0310882C27.0106 -0.113336 27.4429 0.262168 27.4429 0.810981V7.33897C27.4429 7.68559 27.1835 8.03221 26.8376 8.11886L12.8586 11.4695C12.1092 11.6428 11.4751 12.4227 11.4751 13.2026L11.4463 18.8063C11.4463 19.384 10.9851 19.9906 10.4087 20.1061L6.1429 21.0882C5.24939 21.2904 4.5 20.7127 4.5 19.7884V14.3291C4.5 13.7514 4.96116 13.1737 5.53762 13.0293L10.1204 11.9606C10.841 11.8161 11.1581 11.1229 10.841 10.4585Z" fill="black"/>
<path d="M5.1336 23.89L14.6163 21.6947C15.4521 21.4925 15.8268 20.7126 15.4521 19.9327L13.2616 15.3978C12.9157 14.6757 13.2616 13.9247 14.0398 13.7514L26.5201 10.7762C27.0677 10.6318 27.5001 11.0073 27.5001 11.5561V17.593C27.5001 18.2285 26.9813 18.864 26.376 19.0084L17.7291 21.0881C16.8933 21.2614 16.5186 22.0702 16.8933 22.8501L19.2856 27.7894C19.5162 28.2805 19.2856 28.8004 18.7379 28.9159L5.50829 31.9777C4.96066 32.0933 4.52832 31.7467 4.52832 31.1978V24.6698C4.52832 24.3232 4.78772 23.9766 5.1336 23.89Z" fill="black"/>
</g>
<defs>
<clipPath id="clip0_119_6690">
<rect width="32" height="32" fill="white"/>
</clipPath>
</defs>
</svg>
