<svg width="32" height="34" viewBox="0 0 32 34" fill="none" xmlns="http://www.w3.org/2000/svg">
<path fill-rule="evenodd" clip-rule="evenodd" d="M4.9645 5.38248C11.357 -0.729855 21.4804 -0.489861 27.5738 5.92247C27.9701 6.34245 28.3514 6.77744 28.6953 7.23493L16 19.9771L3.30469 7.23493C3.65609 6.77744 4.02992 6.34245 4.42618 5.92247C4.59814 5.74247 4.77758 5.56248 4.9645 5.38248ZM25.8392 7.13743C23.2224 4.4975 19.7383 3.05004 16 3.05004C12.2617 3.05004 8.77758 4.4975 6.16076 7.13743L16 17.0072L25.8392 7.13743ZM29.6897 8.68164L27.1102 11.2691C29.1887 13.7665 28.8598 17.4864 26.3701 19.5713C24.1869 21.4013 21.0168 21.4013 18.8336 19.5713L16 22.4138L13.1738 19.5788C10.6841 21.6638 6.97569 21.3338 4.89719 18.8364C3.07289 16.6464 3.07289 13.4665 4.89719 11.2766L3.57383 9.94911L2.31775 8.68164C0.799999 11.1866 0 14.0665 0 16.9989C0 25.8637 7.16261 33.0485 16 33.0485C24.8373 33.0485 31.9999 25.8637 31.9999 16.9989C32.0074 14.0665 31.1999 11.1866 29.6897 8.68164ZM25.8839 12.498C26.4446 13.2255 26.7511 14.1255 26.7511 15.048C26.7511 15.9705 26.4446 16.8704 25.8839 17.5979C24.4782 19.4204 21.8689 19.7579 20.0521 18.3479L25.8839 12.498ZM11.9471 18.357C11.2219 18.9195 10.3247 19.227 9.40508 19.227C8.48545 19.227 7.59573 18.9195 6.86302 18.3645C5.0462 16.9545 4.70976 14.3296 6.11536 12.5072L11.9471 18.357Z" fill="#1B1A16"/>
</svg>
