<svg width="916" height="104" viewBox="0 0 916 104" fill="none" xmlns="http://www.w3.org/2000/svg">
<g clip-path="url(#clip0_1774_2115)">
<path fill-rule="evenodd" clip-rule="evenodd" d="M655.738 66.8631C688.606 55.1733 721.551 47.3857 754.188 41.4247C781.574 36.4227 808.749 32.706 835.474 29.0507L837.575 28.7633C864.981 25.0141 891.907 21.2959 918.12 16.2844C970.545 6.26182 1020.09 -8.92738 1064.83 -39.8448C1109.57 -70.7587 1149.55 -117.422 1182.8 -190.45L1183.71 -190.036C1150.4 -116.872 1110.31 -70.055 1065.4 -39.0221C1020.49 -7.99255 970.798 7.23166 918.308 17.2666C892.064 22.2838 865.113 26.0054 837.711 29.7541L835.619 30.0402C808.887 33.6964 781.732 37.4105 754.367 42.4085C727.047 47.3985 699.524 53.6674 672.02 62.4328C698.617 55.6818 725.077 51.2702 751.252 48.0623C778.263 44.752 804.977 42.7231 831.223 40.7298L831.224 40.7297L831.224 40.7297C832.614 40.6242 834.002 40.5187 835.388 40.4132C862.976 38.3143 890.034 36.1817 916.39 32.5611C969.098 25.3205 1018.96 12.1332 1064.53 -18.6032C1110.1 -49.3375 1151.41 -97.6473 1186.98 -175.203L1187.89 -174.786C1152.26 -97.1025 1110.84 -48.6327 1065.09 -17.7741C1019.34 13.0823 969.309 26.3009 916.526 33.5518C890.136 37.1771 863.049 39.3116 835.464 41.4104C834.079 41.5157 832.693 41.621 831.306 41.7263C805.055 43.7201 778.361 45.7475 751.374 49.0549C722.31 52.6167 692.911 57.6625 663.375 65.7466C692.052 59.7088 720.427 56.5257 748.382 54.7432C775.169 53.0352 801.577 52.6131 827.489 52.1988L827.49 52.1988L827.49 52.1988L827.491 52.1988C829.42 52.1679 831.347 52.1371 833.27 52.1058C861.038 51.6543 888.225 51.102 914.717 48.8659C967.698 44.3941 1017.86 33.1903 1064.25 2.62032C1110.63 -27.9493 1153.28 -77.9169 1191.16 -160.001L1192.07 -159.582C1154.13 -77.3782 1111.38 -27.2433 1064.8 3.45527C1018.22 34.1534 967.867 45.3833 914.801 49.8624C888.27 52.1017 861.052 52.6542 833.287 53.1057C831.407 53.1363 829.526 53.1664 827.641 53.1965L827.511 53.1986C801.593 53.6129 775.208 54.0348 748.446 55.7412C717.351 57.7239 685.754 61.4404 653.814 68.8917C684.948 63.5456 715.566 61.7202 745.589 61.5357C772.278 61.3717 798.505 62.5045 824.205 63.6146L824.207 63.6147L824.208 63.6147L824.208 63.6147L824.209 63.6147C826.554 63.716 828.895 63.8172 831.232 63.9171C859.178 65.1123 886.49 66.1368 913.114 65.28C966.357 63.5666 1016.81 54.3298 1063.99 23.9128C1111.18 -6.50567 1155.14 -58.1417 1195.33 -144.754L1196.24 -144.333C1156 -57.6091 1111.93 -5.79836 1064.54 24.7533C1017.14 55.3063 966.484 64.563 913.146 66.2795C886.48 67.1377 859.134 66.1113 831.189 64.9162C828.853 64.8163 826.513 64.7152 824.168 64.6139L824.168 64.6139L824.168 64.6139L824.168 64.6139L824.167 64.6138C798.463 63.5036 772.259 62.3718 745.595 62.5357C713.364 62.7338 680.469 64.8253 646.997 71.1352C646.831 71.1982 646.664 71.2613 646.498 71.3245C679.375 67.0591 711.499 66.8249 742.859 68.4012C769.557 69.7431 795.708 72.3978 821.295 74.9951C823.956 75.2653 826.612 75.5349 829.261 75.8023C857.385 78.6408 884.818 81.2358 911.57 81.7502C965.066 82.7789 1015.8 75.486 1063.77 45.2049C1111.74 14.9203 1157.02 -38.3959 1199.52 -129.531L1200.42 -129.108C1157.88 -37.8694 1112.49 15.6289 1064.3 46.0505C1016.1 76.4756 965.152 83.7807 911.55 82.75C884.753 82.2347 857.283 79.6356 829.161 76.7972C826.511 76.5298 823.857 76.2603 821.196 75.9902C795.606 73.3926 769.48 70.7405 742.809 69.3999C710.164 67.7591 676.714 68.0838 642.461 72.8777C642.015 73.0517 641.57 73.2263 641.124 73.4018C675.108 70.5161 708.109 71.992 740.19 75.3771C766.992 78.205 793.159 82.3664 818.719 86.4313C821.604 86.8902 824.482 87.3478 827.352 87.8022C855.652 92.2823 883.203 96.4428 910.077 98.322C963.817 102.08 1014.81 96.7109 1063.55 66.5497C1112.31 36.3828 1158.88 -18.6263 1203.7 -114.284L1204.6 -113.86C1159.74 -18.106 1113.06 37.0928 1064.08 67.4001C1015.09 97.7132 963.861 103.085 910.007 99.3195C883.084 97.437 855.494 93.2698 827.196 88.7899C824.326 88.3355 821.448 87.8779 818.563 87.4191C793 83.3537 766.859 79.1966 740.086 76.3716C706.996 72.8802 672.953 71.4251 637.873 74.6952C637.291 74.9296 636.708 75.1654 636.126 75.4025C671.111 73.9812 704.876 77.2125 737.566 82.4332C764.537 86.7406 790.785 92.4038 816.379 97.926L816.38 97.926C819.425 98.5832 822.462 99.2384 825.489 99.889C853.963 106.008 881.629 111.728 908.622 114.963C962.599 121.432 1013.84 117.96 1063.35 87.8926C1112.87 57.8174 1160.73 1.0914 1207.86 -99.0989L1208.76 -98.6733C1161.6 1.6055 1113.63 58.5287 1063.87 88.7473C1014.09 118.974 962.601 122.44 908.503 115.956C881.459 112.715 853.752 106.986 825.279 100.867C822.251 100.216 819.215 99.5608 816.17 98.9038C790.572 93.3809 764.351 87.7236 737.408 83.4207C703.898 78.0691 669.283 74.8148 633.395 76.5239C632.65 76.8328 631.905 77.1439 631.16 77.4573C667.165 77.5384 701.703 82.5611 735.003 89.6477C762.208 95.4369 788.595 102.606 814.28 109.583C817.427 110.438 820.565 111.291 823.691 112.137C852.339 119.893 880.117 127.165 907.225 131.747C961.431 140.909 1012.91 139.307 1063.17 109.316C1113.46 79.3136 1162.61 20.8591 1212.04 -83.8545L1212.95 -83.4275C1163.47 21.3671 1114.22 80.0262 1063.69 110.174C1013.14 140.333 961.392 141.917 907.058 132.733C879.897 128.142 852.076 120.857 823.43 113.102C820.303 112.256 817.165 111.403 814.018 110.548L814.017 110.548L814.017 110.548C788.33 103.57 761.97 96.4088 734.795 90.6258C700.811 83.3938 665.564 78.3199 628.798 78.4591C627.982 78.8078 627.166 79.1592 626.351 79.5135C663.34 81.1482 698.609 87.9932 732.478 96.9651C759.967 104.247 786.542 112.933 812.361 121.371L812.362 121.371C815.564 122.418 818.754 123.46 821.932 124.496C850.752 133.886 878.64 142.704 905.861 148.625C960.29 160.465 1011.99 160.705 1063.01 130.767C1114.04 100.816 1164.47 40.613 1216.22 -68.6281L1217.12 -68.2C1165.34 41.1149 1114.8 101.53 1063.51 131.63C1012.2 161.744 960.21 161.47 905.648 149.602C878.373 143.669 850.44 134.836 821.623 125.447C818.447 124.412 815.26 123.371 812.063 122.325L812.052 122.322C786.229 113.882 759.682 105.206 732.222 97.9317C697.774 88.8064 661.902 81.8916 624.261 80.4275C623.358 80.825 622.455 81.226 621.553 81.6305C659.546 84.8573 695.557 93.5581 729.999 104.441C757.81 113.23 784.606 123.444 810.59 133.349L810.603 133.354C813.821 134.581 817.027 135.803 820.22 137.017C849.212 148.037 877.208 158.393 904.538 165.642C959.186 180.136 1011.11 182.188 1062.86 152.277C1114.64 122.351 1166.34 60.3806 1220.41 -53.3835L1221.31 -52.9543C1167.21 60.8764 1115.41 123.066 1063.36 153.143C1011.29 183.237 959.065 181.138 904.281 166.608C876.895 159.345 848.854 148.97 819.865 137.951C816.708 136.751 813.54 135.544 810.36 134.332L810.345 134.326L810.233 134.283C784.246 124.377 757.478 114.174 729.697 105.395C694.759 94.3544 658.23 85.5721 619.673 82.4786C618.733 82.9052 617.793 83.3355 616.854 83.7698C655.834 88.6323 692.568 99.2168 727.56 112.029C755.727 122.343 782.774 134.104 808.951 145.487C812.164 146.884 815.364 148.275 818.55 149.657C847.712 162.305 875.815 174.193 903.252 182.76C958.114 199.891 1010.25 203.725 1062.73 173.817C1115.25 143.89 1168.22 80.1315 1224.59 -38.16L1225.49 -37.7298C1169.09 80.6214 1116.02 144.606 1063.23 174.686C1010.4 204.785 957.954 200.889 902.954 183.715C875.46 175.13 847.312 163.221 818.153 150.575C815.088 149.245 812.012 147.908 808.925 146.566L808.727 146.48L808.682 146.46L808.592 146.421L808.553 146.404L808.552 146.403L808.549 146.402L808.548 146.402L808.545 146.4C782.367 135.017 755.35 123.27 727.216 112.968C691.793 99.998 654.612 89.3248 615.139 84.567C614.141 85.0336 613.143 85.5046 612.145 85.9802C652.129 92.5161 689.594 105.016 725.141 119.781C753.688 131.639 781.006 144.962 807.395 157.832L807.396 157.832C810.577 159.384 813.745 160.929 816.9 162.464C846.232 176.735 874.439 190.146 901.981 200.02C957.052 219.764 1009.39 225.344 1062.6 195.411C1115.85 165.456 1170.08 99.8854 1228.76 -22.9333L1229.66 -22.5022C1170.95 100.369 1116.62 166.172 1063.09 196.283C1009.52 226.416 956.853 220.755 901.643 200.961C874.044 191.066 845.792 177.633 816.463 163.363C813.307 161.828 810.139 160.283 806.958 158.731C780.566 145.86 753.275 132.55 724.757 120.704C688.835 105.783 650.981 93.1912 610.564 86.7377C609.54 87.2307 608.517 87.7284 607.494 88.2311C648.471 96.482 686.654 110.923 722.739 127.656C751.688 141.08 779.296 155.984 805.913 170.353C809.046 172.044 812.164 173.728 815.27 175.401C844.771 191.293 873.082 206.218 900.727 217.389C956.005 239.726 1008.54 247.023 1062.48 217.04C1116.46 187.031 1171.95 119.631 1232.95 -7.71013L1233.85 -7.27811C1172.83 120.11 1117.23 187.749 1062.96 217.914C1008.65 248.104 955.769 240.71 900.352 218.316C872.649 207.122 844.293 192.171 814.796 176.281C811.689 174.608 808.57 172.924 805.438 171.233C778.818 156.863 751.237 141.974 722.319 128.563C685.903 111.677 647.381 97.1429 606.022 88.9571C604.954 89.4868 603.886 90.0219 602.818 90.5623C644.813 100.57 683.729 116.989 720.366 135.72C749.727 150.731 777.633 167.232 804.485 183.109C807.559 184.927 810.62 186.737 813.668 188.535C843.338 206.045 871.751 222.477 899.498 234.933C954.98 259.842 1007.71 268.818 1062.37 238.755C1117.08 208.662 1173.81 139.407 1237.12 7.53812L1238.02 7.97091C1174.7 139.88 1117.84 209.38 1062.85 239.631C1007.8 269.91 954.708 260.816 899.089 235.846C871.284 223.363 842.826 206.904 813.16 189.397C810.112 187.598 807.051 185.788 803.977 183.97L803.975 183.969L803.975 183.969C777.121 168.09 749.242 151.606 719.91 136.61C682.984 117.731 643.77 101.22 601.439 91.2634C600.363 91.813 599.287 92.368 598.212 92.9287C641.199 104.734 680.823 123.151 717.986 143.886C747.765 160.502 775.974 178.612 803.063 196.003L803.066 196.005L803.067 196.006L803.07 196.008L803.07 196.008L803.071 196.008L803.073 196.01C806.082 197.942 809.078 199.865 812.06 201.776C841.899 220.899 870.415 238.829 898.263 252.559C953.949 280.015 1006.87 290.638 1062.25 260.467C1117.68 230.263 1175.68 159.132 1241.3 22.7407L1242.2 23.1742C1176.56 159.599 1118.45 230.982 1062.73 261.345C1006.94 291.739 953.642 280.979 897.821 253.456C869.915 239.697 841.356 221.739 811.521 202.618C808.541 200.709 805.548 198.787 802.541 196.857L802.533 196.852C775.438 179.456 747.253 161.361 717.499 144.759C680.079 123.881 640.193 105.374 596.91 93.6098C595.792 94.1975 594.674 94.7913 593.557 95.3912C637.566 109.037 677.921 129.491 715.628 152.263C745.836 170.506 774.354 190.242 801.688 209.158C804.63 211.195 807.559 213.222 810.475 215.236C840.483 235.969 869.099 255.388 897.048 270.38C952.936 300.36 1006.05 312.59 1062.14 282.277C1118.3 251.929 1177.54 178.89 1245.47 37.9671L1246.37 38.4013C1178.43 179.353 1119.07 252.648 1062.62 283.157C1006.1 313.701 952.596 301.312 896.575 271.261C868.57 256.239 839.91 236.789 809.907 216.059C806.991 214.044 804.062 212.018 801.12 209.982C773.783 191.063 745.291 171.345 715.112 153.119C677.178 130.21 636.592 109.67 592.322 96.0566C591.193 96.6674 590.065 97.2845 588.937 97.9079C633.955 113.434 675.027 135.948 713.265 160.767C743.902 180.653 772.729 202.025 800.305 222.471L800.306 222.471L800.309 222.474L800.312 222.476C803.183 224.604 806.04 226.722 808.884 228.828C839.059 251.167 867.778 272.065 895.828 288.308C951.919 320.79 1005.23 334.594 1062.03 304.116C1118.91 273.598 1179.41 198.637 1249.66 53.191L1250.56 53.6259C1180.3 199.094 1119.69 274.317 1062.51 304.997C1005.25 335.715 951.546 321.729 895.326 289.174C867.221 272.898 838.46 251.967 808.289 229.632C805.443 227.525 802.584 225.405 799.712 223.276L799.711 223.275C772.131 202.827 743.329 181.474 712.72 161.606C674.282 136.656 633.008 114.06 587.76 98.5608C586.93 99.023 586.1 99.4887 585.271 99.9579C584.945 100.142 584.619 100.327 584.294 100.513C630.331 117.963 672.127 142.572 710.9 169.464C741.963 191.009 771.094 214.027 798.911 236.004C801.717 238.222 804.511 240.429 807.291 242.623C837.635 266.564 866.456 288.935 894.606 306.417C950.901 341.377 1004.4 356.719 1061.92 326.042C1119.53 295.323 1181.28 218.411 1253.83 68.4388L1254.73 68.8743C1182.17 218.863 1120.3 296.042 1062.39 326.924C1004.41 357.849 950.497 342.303 894.079 307.267C865.873 289.75 837.011 267.346 806.672 243.408C803.891 241.214 801.098 239.007 798.292 236.79L798.292 236.79L798.291 236.789L798.287 236.786L798.285 236.784L798.284 236.784C770.467 214.806 741.363 191.81 710.33 170.286C671.381 143.271 629.409 118.586 583.172 101.158C582.018 101.826 580.865 102.505 579.713 103.196C626.744 122.609 669.24 149.33 708.525 178.299C740.011 201.516 769.445 226.185 797.497 249.696C800.24 251.995 802.97 254.283 805.688 256.558C836.201 282.098 865.123 305.931 893.375 324.64C921.627 343.348 949.177 356.91 976.938 361.935C1004.68 366.957 1032.67 363.455 1061.81 347.993C1120.13 317.043 1183.13 238.159 1258 83.6661L1258.9 84.1022C1184.03 238.607 1120.91 317.763 1062.28 348.876C1032.93 364.445 1004.72 367.981 976.76 362.919C948.809 357.86 921.128 344.217 892.823 325.473C864.517 306.729 835.554 282.861 805.046 257.325C802.42 255.127 799.783 252.917 797.133 250.696L796.943 250.537L796.857 250.464C768.801 226.95 739.392 202.302 707.932 179.104C668.493 150.022 625.848 123.233 578.647 103.839C577.488 104.542 576.329 105.257 575.171 105.983C623.18 127.397 666.362 156.25 706.149 187.305C738.05 212.204 767.777 238.526 796.059 263.568C798.747 265.948 801.422 268.317 804.085 270.671C834.767 297.806 863.793 323.092 892.149 343.015C920.505 362.939 948.157 377.476 976.085 383.139C1004 388.798 1032.21 385.601 1061.71 370.009C1120.77 338.8 1185.03 257.921 1262.2 98.9068L1263.1 99.3434C1185.92 258.365 1121.55 339.519 1062.18 370.893C1032.47 386.593 1004.02 389.824 975.886 384.119C947.765 378.416 919.982 363.794 891.574 343.834C863.165 323.873 834.099 298.55 803.422 271.42C800.76 269.066 798.086 266.698 795.399 264.319L795.397 264.317C767.113 239.273 737.408 212.972 705.534 188.093C665.614 156.935 622.305 128.021 574.154 106.625C572.991 107.362 571.829 108.11 570.668 108.87C619.626 132.324 663.472 163.325 703.741 196.469C736.047 223.059 766.059 251.036 794.562 277.605C797.203 280.067 799.831 282.517 802.447 284.952C833.298 313.678 862.428 340.408 890.887 361.534C919.348 382.661 947.103 398.155 975.197 404.439C1003.27 410.72 1031.72 407.807 1061.58 392.069C1091.47 376.323 1122.79 347.728 1156.59 302.607C1190.39 257.488 1226.63 195.871 1266.37 114.113L1267.27 114.55C1227.52 196.34 1191.24 258.019 1157.39 303.206C1123.54 348.392 1092.11 377.113 1062.05 392.954C1031.97 408.803 1003.29 411.747 974.979 405.415C946.688 399.087 918.801 383.501 890.291 362.337C861.78 341.173 832.612 314.405 801.765 285.684C799.189 283.285 796.6 280.872 794 278.448L793.948 278.4L793.884 278.34L793.882 278.338L793.881 278.338C765.376 251.766 735.385 223.81 703.105 197.241C662.722 164.003 618.77 132.949 569.692 109.512C568.521 110.285 567.352 111.07 566.183 111.866C616.076 137.393 660.572 170.559 701.312 205.798C734.015 234.086 764.307 263.718 793.025 291.811L795.769 294.495C796.641 295.348 797.512 296.2 798.381 297.05C799.185 297.835 799.987 298.619 800.787 299.402C831.809 329.715 861.044 357.881 889.61 380.199C918.176 402.517 946.037 418.956 974.302 425.848C1002.55 432.735 1031.23 430.094 1061.46 414.197C1091.71 398.292 1123.53 369.107 1158.03 322.87C1192.52 276.635 1229.67 213.376 1270.56 129.358L1271.46 129.795C1230.55 213.844 1193.38 277.164 1158.83 323.467C1124.29 369.768 1092.36 399.081 1061.92 415.082C1031.48 431.092 1002.55 433.764 974.065 426.819C945.601 419.879 917.608 403.342 888.994 380.987C860.378 358.63 831.105 330.425 800.089 300.117C797.527 297.613 794.953 295.095 792.366 292.565L792.329 292.529L792.328 292.528L792.326 292.526L792.324 292.524L792.324 292.524L792.323 292.523L792.323 292.523L792.32 292.52C763.601 264.426 733.334 234.818 700.658 206.554C659.82 171.23 615.235 138.018 565.244 112.509C521.97 142.238 480.325 187.539 440.608 239.991C394.805 300.482 351.598 370.438 311.437 436.896C306.34 445.33 301.292 453.708 296.294 462.003L296.26 462.06L296.258 462.063C261.895 519.096 229.891 572.213 200.563 612.756C183.761 635.984 167.821 655.108 152.801 668.484C137.793 681.85 123.634 689.541 110.401 689.764L110.384 688.764C123.254 688.547 137.184 681.053 152.136 667.737C167.076 654.432 182.967 635.376 199.753 612.17C229.055 571.663 261.034 518.586 295.402 461.546L295.403 461.545L295.419 461.518C300.423 453.213 305.477 444.825 310.581 436.379C350.741 369.922 393.972 299.924 439.811 239.387C479.411 187.09 520.981 141.82 564.23 111.993C562.632 111.182 561.028 110.379 559.419 109.584C515.816 137.224 474.209 180.8 434.68 231.739C389.417 290.067 346.913 358.002 307.278 422.619C303.02 429.561 298.795 436.464 294.603 443.314L294.601 443.317L294.598 443.322C259.781 500.214 227.254 553.363 197.116 593.537C180.231 616.044 164.079 634.502 148.676 647.271C133.28 660.035 118.57 667.165 104.579 666.897L104.598 665.897C118.236 666.159 132.715 659.204 148.037 646.501C163.353 633.805 179.45 615.419 196.316 592.937C226.425 552.802 258.927 499.693 293.753 442.788L293.813 442.689L293.924 442.507C298.059 435.752 302.226 428.943 306.425 422.096C346.059 357.482 388.589 289.503 433.89 231.126C473.286 180.359 514.804 136.817 558.368 109.066C556.785 108.289 555.195 107.519 553.601 106.757C509.694 132.328 468.147 174.179 428.82 223.592C384.107 279.772 342.3 345.678 303.18 408.438C299.719 413.991 296.278 419.52 292.859 425.015C257.639 481.61 224.631 534.654 193.689 574.346C176.715 596.12 160.345 613.902 144.553 626.055C128.765 638.205 113.501 644.77 98.754 644.008L98.8056 643.009C113.213 643.754 128.244 637.344 143.943 625.263C159.638 613.184 175.948 595.478 192.9 573.732C223.808 534.083 256.788 481.086 292.016 424.476C295.434 418.984 298.872 413.459 302.332 407.909C341.449 345.153 383.284 279.2 428.038 222.969C467.214 173.746 508.656 131.933 552.509 106.236C550.957 105.5 549.4 104.77 547.838 104.049C503.641 127.58 462.165 167.718 423.044 215.602C378.888 269.649 337.773 333.514 299.156 394.394C297.868 396.424 296.583 398.451 295.301 400.474L293.437 403.416L291.06 407.167C255.486 463.313 222.033 516.111 190.291 555.215C173.221 576.244 156.626 593.338 140.441 604.867C124.257 616.396 108.437 622.391 92.9362 621.14L93.0167 620.144C108.195 621.369 123.781 615.507 139.861 604.053C155.941 592.599 172.47 575.584 189.515 554.585C221.218 515.529 254.64 462.779 290.227 406.613C292.91 402.38 295.604 398.127 298.312 393.859C336.925 332.983 378.07 269.069 422.27 214.969C461.221 167.292 502.575 127.198 546.698 103.524C545.163 102.82 543.622 102.123 542.077 101.434C497.608 122.947 456.223 161.369 417.322 207.708C373.731 259.634 333.302 321.449 295.18 380.434C293.193 383.507 291.213 386.573 289.239 389.629L289.18 389.721C253.301 445.271 219.443 497.691 186.908 536.102C169.735 556.376 152.911 572.772 136.329 583.67C119.745 594.569 103.369 599.991 87.1144 598.252L87.2207 597.257C103.17 598.964 119.315 593.656 135.78 582.834C152.248 572.011 169.001 555.696 186.145 535.456C218.636 497.097 252.459 444.731 288.354 389.157L288.357 389.153L288.452 389.005C290.408 385.976 292.371 382.937 294.34 379.891C332.458 320.913 372.919 259.046 416.556 207.065C455.267 160.952 496.511 122.577 540.882 100.903C539.381 100.239 537.876 99.5824 536.366 98.933C491.631 118.452 450.341 155.17 411.663 199.963C368.643 249.785 328.898 309.543 291.261 366.614C290.003 368.521 288.748 370.426 287.494 372.327L287.253 372.693L287.252 372.695C251.108 427.52 216.879 479.44 183.551 517.06C166.27 536.567 149.211 552.253 132.23 562.51C115.244 572.77 98.3089 577.613 81.2996 575.383L81.4295 574.392C98.1505 576.583 114.857 571.835 131.713 561.654C148.572 551.471 165.554 535.867 182.802 516.397C216.082 478.832 250.276 426.965 286.44 372.109L286.442 372.107L286.443 372.105L286.724 371.679C287.956 369.811 289.19 367.938 290.427 366.063C328.057 309.001 367.837 249.189 410.906 199.31C449.373 154.762 490.498 118.095 535.107 98.3936C533.619 97.7585 532.125 97.1305 530.627 96.5098C485.652 114.067 444.486 149.08 406.05 192.305C363.608 240.036 324.542 297.728 287.383 352.868L285.266 356.009L285.265 356.01C248.895 409.985 214.325 461.289 180.204 498.029C145.441 535.459 111.005 557.927 75.4806 552.494L75.6317 551.505C110.617 556.856 144.732 534.752 179.471 497.348C213.537 460.668 248.069 409.422 284.462 355.412L284.466 355.407L284.467 355.406L286.554 352.309C323.705 297.179 362.808 239.43 405.303 191.64C443.502 148.68 484.48 113.725 529.294 95.9597C527.854 95.3686 526.411 94.7843 524.963 94.2068C479.73 109.816 438.677 143.131 400.476 184.79C358.614 230.441 320.222 286.057 283.535 339.248L283.191 339.747L283.189 339.749L283.188 339.751C246.64 392.741 211.769 443.298 176.866 479.058C141.865 514.919 106.702 536.033 69.6668 529.626L69.8374 528.641C106.354 534.958 141.195 514.173 176.15 478.36C210.995 442.659 245.827 392.158 282.407 339.123L282.712 338.68C319.391 285.501 357.821 229.825 399.739 184.114C437.678 142.742 478.512 109.488 523.542 93.6429C522.128 93.0846 520.71 92.5329 519.288 91.9877C473.815 105.676 432.897 137.293 394.946 177.366C354.186 220.405 316.896 273.146 281.091 323.787L279.731 325.711C243.523 376.919 208.801 425.836 173.546 460.111C138.297 494.379 102.399 514.122 63.8492 506.736L64.0373 505.754C102.092 513.045 137.668 493.596 172.849 459.394C208.024 425.197 242.69 376.365 278.914 325.133L280.296 323.179L280.297 323.179C316.086 272.559 353.411 219.77 394.22 176.679C431.878 136.914 472.544 105.364 517.765 91.4068C516.402 90.8902 515.036 90.3797 513.666 89.8754C467.937 101.654 427.149 131.577 389.445 170.058C349.875 210.445 313.749 260.209 278.901 308.213C277.917 309.568 276.934 310.922 275.952 312.274C240.206 361.502 205.738 408.551 170.237 441.208C134.736 473.866 98.1006 492.226 58.038 483.868L58.2422 482.889C97.8339 491.148 134.149 473.048 169.56 440.472C204.973 407.896 239.381 360.937 275.143 311.687L277.039 309.075L278.11 307.599L278.111 307.598L278.112 307.596L278.113 307.595C312.946 259.613 349.109 209.798 388.731 169.359C426.108 131.21 466.604 101.362 512.019 89.2729C510.691 88.7901 509.36 88.3131 508.024 87.842C462.05 97.7395 421.409 125.961 383.969 162.825C345.55 200.653 310.546 247.534 276.631 292.957C275.149 294.942 273.669 296.924 272.19 298.903C236.903 346.136 202.682 391.295 166.931 422.317C131.172 453.346 93.7965 470.307 52.2221 460.979L52.441 460.003C93.5702 469.232 130.628 452.494 166.275 421.562C201.93 390.623 236.086 345.559 271.389 298.304C272.873 296.318 274.359 294.329 275.846 292.336C309.747 246.932 344.793 199.995 383.267 162.113C420.342 125.609 460.642 97.4685 506.23 87.2131C504.969 86.7747 503.706 86.3414 502.439 85.9136C456.195 93.9407 415.694 120.469 378.511 155.716C341.215 191.07 307.301 235.153 274.301 278.046L274.301 278.047C272.348 280.586 270.398 283.12 268.451 285.648C233.619 330.874 199.642 374.12 163.637 403.488C127.618 432.867 89.4991 448.414 46.4118 438.11L46.6444 437.138C89.313 447.342 127.118 431.984 163.005 402.713C198.904 373.432 232.812 330.284 267.659 285.038C269.61 282.504 271.565 279.963 273.523 277.418L273.523 277.418C306.509 234.542 340.468 190.4 377.823 154.99C414.594 120.134 454.698 93.695 500.464 85.2514C499.255 84.8495 498.043 84.4525 496.828 84.0604C450.32 90.2424 409.974 115.07 373.063 148.673C336.854 181.637 303.992 223.007 271.885 263.428L271.881 263.432L271.878 263.437L271.874 263.441L271.871 263.446C269.483 266.452 267.099 269.453 264.718 272.445C230.34 315.648 196.602 356.962 160.34 384.66C124.059 412.371 85.1954 426.495 40.5969 415.221L40.842 414.251C85.0489 425.426 123.603 411.461 159.733 383.865C195.88 356.256 229.543 315.044 263.936 271.822C266.324 268.82 268.716 265.809 271.113 262.791C303.208 222.386 336.118 180.955 372.39 147.933C408.833 114.756 448.712 90.0272 494.628 83.3568C493.515 83.004 492.399 82.6553 491.281 82.3108C444.475 86.6483 404.272 109.773 367.627 141.724C332.466 172.381 300.62 211.127 269.381 249.136C266.582 252.541 263.788 255.941 260.996 259.328C227.071 300.499 193.571 339.864 157.05 365.877C120.506 391.906 80.8977 404.596 34.7878 392.353L35.0444 391.387C80.7895 403.532 120.095 390.971 156.469 365.063C192.865 339.139 226.285 299.88 260.225 258.692C263.018 255.302 265.815 251.899 268.617 248.49C299.845 210.496 331.743 171.685 366.969 140.971C403.079 109.487 442.727 86.4713 488.796 81.5536C487.745 81.2367 486.691 80.9235 485.635 80.6141C438.561 83.1486 398.535 104.559 362.188 134.82C328.044 163.246 297.182 199.45 266.791 235.102L266.791 235.102L266.786 235.108L266.781 235.114C263.608 238.836 260.439 242.553 257.273 246.254C223.799 285.383 190.536 322.783 153.755 347.098C116.949 371.429 76.5947 382.675 28.9736 369.464L29.2408 368.5C76.5241 381.618 116.582 370.473 153.203 346.263C189.849 322.038 223.027 284.747 256.513 245.604C259.68 241.902 262.85 238.184 266.025 234.459L266.035 234.447C296.415 198.807 327.334 162.536 361.548 134.051C397.273 104.309 436.631 83.0201 482.783 79.7888C481.896 79.5355 481.007 79.2848 480.117 79.0369C432.707 79.7534 392.825 99.4513 356.752 128.024C323.587 154.294 293.675 188.037 264.109 221.39C260.587 225.363 257.07 229.33 253.553 233.279C220.531 270.354 187.506 305.772 150.466 328.373C113.399 350.99 72.2997 360.78 23.1656 346.595L23.443 345.634C72.2654 359.729 113.077 350.015 149.945 327.519C186.84 305.007 219.774 269.701 252.807 232.614C256.319 228.67 259.833 224.706 263.353 220.736L263.363 220.724C292.919 187.381 322.892 153.569 356.131 127.24C391.465 99.2525 430.529 79.6897 476.768 78.1187C476.027 77.9188 475.285 77.7208 474.542 77.5247C426.807 76.4448 387.088 94.4131 351.31 121.262C319.087 145.444 290.09 176.804 261.324 207.916L261.319 207.922C257.486 212.067 253.658 216.207 249.827 220.326C217.255 255.338 184.467 288.76 147.168 309.638C109.841 330.53 67.9981 338.859 17.352 323.706L17.6385 322.748C67.9985 337.816 109.563 329.54 146.68 308.765C183.824 287.975 216.515 254.666 249.094 219.645C252.925 215.527 256.754 211.386 260.589 207.238C289.346 176.135 318.408 144.702 350.71 120.462C385.588 94.2884 424.278 76.4713 470.499 76.4785C470.024 76.3581 469.548 76.2384 469.072 76.1195C420.944 73.2335 381.36 89.47 345.86 114.589C314.542 136.749 286.43 165.801 258.442 194.726L258.441 194.726L258.438 194.73L258.435 194.733L258.411 194.758L258.387 194.783C254.289 199.017 250.195 203.249 246.093 207.455C213.975 240.395 181.426 271.806 143.87 290.946C106.287 310.1 63.7029 316.959 11.5442 300.838L11.8395 299.883C63.7364 315.922 106.052 309.097 143.416 290.055C180.808 270.998 213.253 239.702 245.377 206.757C249.492 202.537 253.602 198.289 257.717 194.037C285.698 165.118 313.882 135.992 345.282 113.773C379.643 89.4599 417.887 73.3934 463.992 74.8839C463.832 74.8461 463.672 74.8085 463.513 74.7709C373.054 66.0775 314.19 123.983 255.428 181.789C251.072 186.074 246.717 190.359 242.349 194.616C210.685 225.476 178.378 254.865 140.567 272.257C102.73 289.662 59.4045 295.043 5.73133 277.949L6.03483 276.997C59.4694 294.014 102.537 288.649 140.149 271.349C177.787 254.037 209.985 224.762 241.651 193.899C246.031 189.631 250.4 185.332 254.772 181.031L254.777 181.026C311.575 125.142 368.847 68.7927 454.906 73.1365C366.264 62.855 309.458 115.816 252.338 169.068C247.764 173.332 243.188 177.598 238.594 181.834C207.383 210.608 175.319 237.963 137.256 253.598C99.1688 269.244 55.1074 273.143 -0.0759893 255.081L0.23506 254.131C55.2021 272.122 99.018 268.225 136.876 252.673C174.758 237.113 206.706 209.871 237.916 181.099C242.52 176.855 247.107 172.577 251.695 168.299C306.639 117.066 361.659 65.7612 445.229 71.2519C358.989 59.959 304.407 107.946 249.132 156.542C244.372 160.726 239.608 164.914 234.818 169.07C204.065 195.75 172.25 221.061 133.938 234.931C95.6061 248.809 50.81 251.222 -5.88779 232.192L-5.5696 231.244C50.9325 250.208 95.4956 247.786 133.598 233.991C171.721 220.189 203.416 194.99 234.163 168.315C238.951 164.161 243.716 159.971 248.479 155.783L248.481 155.781L248.483 155.78L248.485 155.778L248.487 155.776L248.489 155.774L248.491 155.772L248.493 155.771L248.495 155.769L248.497 155.767L248.499 155.765L248.501 155.763C301.485 109.173 354.182 62.8349 434.936 69.1672C351.442 57.1904 299.148 100.292 245.82 144.246L245.814 144.251L245.812 144.253C240.902 148.3 235.983 152.354 231.031 156.373C200.738 180.955 169.176 204.211 130.621 216.307C92.0481 228.409 46.5198 229.327 -11.6943 209.325L-11.3694 208.379C46.6686 228.321 91.9768 227.383 130.321 215.353C168.683 203.318 200.119 180.169 230.401 155.596C235.358 151.573 240.284 147.512 245.205 143.456C300.361 97.987 354.797 53.1114 443.975 69.6415C446.858 70.1755 449.724 70.7378 452.574 71.3277C456.356 71.9387 460.11 72.5999 463.838 73.3097C467.36 73.8186 470.86 74.3723 474.336 74.9695C478.034 75.4333 481.707 75.948 485.355 76.5119C488.794 76.8819 492.212 77.297 495.608 77.7559C499.32 78.0807 503.008 78.4596 506.67 78.8906C510.062 79.1263 513.432 79.408 516.783 79.7344C520.59 79.9191 524.371 80.1633 528.128 80.4646C531.327 80.5626 534.508 80.7034 537.672 80.8855C541.299 80.9116 544.904 80.9937 548.488 81.1295C551.781 81.0862 555.058 81.0896 558.318 81.1379C561.872 81.0061 565.408 80.9294 568.927 80.9053C572.137 80.7139 575.333 80.5676 578.516 80.4646C582.014 80.1631 585.497 79.9152 588.965 79.7189C592.133 79.3657 595.29 79.0564 598.435 78.7893C601.969 78.291 605.491 77.8471 609.001 77.455C612.018 76.9452 615.027 76.4743 618.029 76.0407C621.319 75.373 624.602 74.7508 627.877 74.172C630.939 73.4473 633.995 72.761 637.047 72.1114C640.321 71.2132 643.591 70.3575 646.858 69.5422C649.819 68.6164 652.779 67.7239 655.738 66.8631ZM638.16 73.5028C637.985 73.5728 637.81 73.6429 637.636 73.7131C637.465 73.7291 637.294 73.7451 637.124 73.7613L637.511 73.6305L637.67 73.577C637.833 73.5522 637.996 73.5274 638.16 73.5028ZM634.379 75.0364C633.977 75.2014 633.575 75.367 633.174 75.5334C632.715 75.5554 632.256 75.5783 631.797 75.6019C631.971 75.5407 632.144 75.4796 632.318 75.4185C632.546 75.3386 632.773 75.2589 633 75.1794C633.46 75.1309 633.92 75.0832 634.379 75.0364ZM630.44 76.6758C629.823 76.9356 629.207 77.197 628.591 77.4599C627.926 77.4628 627.261 77.4674 626.595 77.4737C627.221 77.2439 627.847 77.0158 628.473 76.7893C629.129 76.7498 629.785 76.7119 630.44 76.6758ZM626.226 78.4774C625.507 78.7892 624.788 79.1032 624.069 79.4193C623.254 79.3881 622.439 79.3595 621.622 79.3334C622.348 79.0568 623.074 78.7824 623.8 78.5103C624.61 78.4968 625.418 78.4858 626.226 78.4774ZM621.977 80.3454C621.15 80.7144 620.322 81.0864 619.495 81.4613C618.56 81.3869 617.625 81.3159 616.688 81.2483C617.526 80.9171 618.364 80.5891 619.201 80.2641C620.128 80.2878 621.053 80.315 621.977 80.3454ZM617.614 82.319C616.734 82.7226 615.854 83.1296 614.975 83.5401C613.945 83.4167 612.914 83.2974 611.881 83.1821C612.769 82.8185 613.657 82.4585 614.545 82.1019C615.569 82.1702 616.592 82.2426 617.614 82.319ZM613.259 84.3451C612.31 84.793 611.361 85.2449 610.412 85.7009C609.301 85.5244 608.188 85.3525 607.073 85.1853C608.032 84.7785 608.992 84.3759 609.952 83.9775C611.056 84.0954 612.158 84.2179 613.259 84.3451ZM608.831 86.465C607.848 86.9423 606.865 87.424 605.883 87.9102C604.703 87.6777 603.52 87.4503 602.335 87.2282C603.328 86.7929 604.32 86.3623 605.313 85.9361C606.488 86.1072 607.66 86.2835 608.831 86.465ZM604.412 88.6418C603.378 89.1582 602.344 89.6797 601.311 90.2062C600.069 89.9152 598.824 89.6299 597.577 89.3504C598.622 88.8764 599.667 88.4077 600.712 87.9441C601.948 88.1709 603.181 88.4035 604.412 88.6418ZM599.932 90.912C598.885 91.4501 597.839 91.9933 596.793 92.5419C595.498 92.1911 594.199 91.8463 592.897 91.5077C593.954 91.0127 595.01 90.5231 596.066 90.0389C597.358 90.3238 598.646 90.6149 599.932 90.912ZM595.492 93.227C594.399 93.8048 593.307 94.3883 592.215 94.9777C590.87 94.5654 589.521 94.1595 588.168 93.7601C589.273 93.2255 590.377 92.697 591.481 92.1744C592.821 92.5188 594.158 92.8697 595.492 93.227ZM590.981 95.6466C589.874 96.2485 588.768 96.8566 587.663 97.4707C586.272 96.996 584.878 96.5279 583.479 96.0667C584.597 95.5081 585.715 94.9558 586.832 94.4098C588.219 94.8152 589.602 95.2276 590.981 95.6466ZM586.486 98.1267C585.917 98.4453 585.347 98.7655 584.778 99.0874C584.212 99.4074 583.647 99.7303 583.082 100.056C581.647 99.517 580.209 98.9851 578.766 98.4602C579.915 97.8677 581.063 97.2819 582.212 96.7028C583.641 97.1703 585.065 97.645 586.486 98.1267ZM581.962 100.704C580.827 101.366 579.694 102.039 578.561 102.723C577.082 102.117 575.598 101.518 574.11 100.927C575.259 100.302 576.408 99.6884 577.56 99.0865C579.031 99.6184 580.499 100.158 581.962 100.704ZM577.497 103.368C576.354 104.066 575.212 104.774 574.071 105.494C572.553 104.822 571.031 104.157 569.503 103.5C570.658 102.839 571.813 102.189 572.971 101.551C574.484 102.149 575.993 102.755 577.497 103.368ZM573.055 106.138C571.906 106.87 570.759 107.612 569.613 108.366C568.062 107.628 566.505 106.897 564.944 106.174C566.101 105.479 567.26 104.795 568.421 104.123C569.97 104.787 571.515 105.459 573.055 106.138ZM568.638 109.01C567.481 109.778 566.324 110.558 565.168 111.348C563.588 110.544 562.001 109.747 560.41 108.958C561.575 108.227 562.742 107.506 563.911 106.797C565.492 107.527 567.068 108.265 568.638 109.01ZM628.269 75.7998L628.647 75.6633C628.441 75.6874 628.234 75.7116 628.028 75.7361L627.698 75.8348C627.889 75.823 628.079 75.8113 628.269 75.7998ZM623.611 77.5133C624.054 77.3475 624.497 77.1824 624.94 77.0182C624.571 77.0438 624.202 77.0699 623.833 77.0966L623.486 77.1219C623.04 77.2608 622.593 77.4006 622.147 77.5413C622.635 77.531 623.123 77.5217 623.611 77.5133ZM619.864 78.9358C620.18 78.8141 620.497 78.6928 620.813 78.5719C620.125 78.5888 619.437 78.6075 618.748 78.6282C618.465 78.7198 618.183 78.8118 617.901 78.9041C617.587 79.0066 617.273 79.1096 616.96 79.213C617.649 79.2266 618.338 79.242 619.027 79.2593C619.306 79.1512 619.585 79.0433 619.864 78.9358ZM614.384 81.089C615.124 80.7923 615.864 80.4981 616.604 80.2063C615.77 80.1906 614.935 80.1777 614.099 80.1675C613.353 80.4194 612.607 80.6738 611.861 80.9307C612.703 80.9807 613.544 81.0335 614.384 81.089ZM609.804 82.9562C610.616 82.6196 611.428 82.2859 612.24 81.9552C611.288 81.8976 610.336 81.8435 609.381 81.793C608.565 82.0799 607.749 82.3698 606.932 82.6627C607.891 82.7569 608.848 82.8548 609.804 82.9562ZM605.178 84.906C606.077 84.5208 606.975 84.1394 607.874 83.7616C606.83 83.656 605.784 83.5546 604.736 83.4575C603.83 83.7884 602.923 84.1231 602.016 84.4616C603.072 84.6055 604.126 84.7536 605.178 84.906ZM600.589 86.9049C601.532 86.4875 602.475 86.0742 603.417 85.6651C602.293 85.5072 601.167 85.3541 600.039 85.2059C599.089 85.5662 598.139 85.9306 597.189 86.2993C598.324 86.4963 599.458 86.6982 600.589 86.9049ZM595.955 88.9904C596.958 88.5313 597.962 88.0771 598.966 87.6277C597.774 87.4146 596.58 87.2069 595.384 87.0047C594.371 87.4033 593.359 87.8068 592.345 88.2152C593.551 88.4682 594.754 88.7266 595.955 88.9904ZM591.38 91.1161C592.402 90.6339 593.423 90.1568 594.444 89.6847C593.193 89.4141 591.938 89.1494 590.681 88.8906C589.652 89.3107 588.623 89.7359 587.593 90.1663C588.858 90.4771 590.121 90.7937 591.38 91.1161ZM586.741 93.3415C587.816 92.8179 588.89 92.3 589.964 91.7878C588.661 91.4582 587.354 91.1349 586.044 90.8179C584.96 91.2767 583.875 91.7413 582.79 92.2117C584.111 92.5821 585.427 92.9587 586.741 93.3415ZM582.13 95.6243C583.222 95.0753 584.314 94.5324 585.406 93.9955C584.053 93.6053 582.697 93.2217 581.338 92.8448C580.237 93.3275 579.135 93.8163 578.034 94.3112C579.403 94.7423 580.768 95.1801 582.13 95.6243ZM578.076 97.6912C579.005 97.2111 579.934 96.7354 580.864 96.2641C579.467 95.8124 578.067 95.3676 576.664 94.9298C575.527 95.4455 574.39 95.9678 573.253 96.4968C574.668 96.9899 576.079 97.49 577.486 97.9969C577.683 97.8947 577.879 97.7928 578.076 97.6912ZM572.9 100.448C574.027 99.8305 575.154 99.2234 576.283 98.6275C574.844 98.1125 573.401 97.6047 571.953 97.1041L571.793 97.1795C570.701 97.6927 569.611 98.2163 568.522 98.7503C569.986 99.3092 571.445 99.8753 572.9 100.448ZM568.354 103.007C569.489 102.352 570.626 101.709 571.764 101.076C570.28 100.495 568.792 99.9211 567.299 99.3548C566.147 99.9285 564.997 100.514 563.848 101.11C565.355 101.735 566.857 102.367 568.354 103.007ZM563.847 105.667C564.988 104.978 566.13 104.3 567.273 103.633C565.751 102.986 564.224 102.346 562.693 101.715C561.538 102.323 560.384 102.943 559.233 103.574C560.776 104.264 562.314 104.962 563.847 105.667ZM559.358 108.439C560.509 107.713 561.661 106.997 562.815 106.293C561.26 105.581 559.7 104.876 558.135 104.179C556.971 104.824 555.809 105.481 554.649 106.15C556.224 106.905 557.794 107.668 559.358 108.439ZM619.079 77.47C618.911 77.5242 618.743 77.5785 618.575 77.6329L618.277 77.6421L618.105 77.6475C618.282 77.6008 618.459 77.5543 618.636 77.5078L619.079 77.47ZM614.421 79.004C614.261 79.0577 614.101 79.1116 613.941 79.1656C613.71 79.1629 613.48 79.1604 613.249 79.1581C613.021 79.1558 612.793 79.1538 612.565 79.152C612.977 79.0369 613.389 78.9226 613.8 78.8091C614.258 78.7893 614.715 78.7704 615.172 78.7524C614.922 78.836 614.671 78.9198 614.421 79.004ZM611.078 80.143C610.464 80.355 609.85 80.5687 609.237 80.784C608.567 80.7489 607.896 80.7156 607.225 80.6841C607.846 80.5011 608.467 80.3198 609.088 80.1402C609.36 80.1399 609.632 80.1398 609.903 80.1401C610.295 80.1404 610.686 80.1414 611.078 80.143ZM606.756 81.6634C606.039 81.9203 605.322 82.1795 604.604 82.441C603.781 82.3652 602.958 82.2921 602.133 82.2217C602.855 81.9984 603.576 81.7775 604.297 81.5589C605.118 81.5911 605.937 81.6259 606.756 81.6634ZM602.408 83.249C601.578 83.5567 600.749 83.8676 599.919 84.1818C598.975 84.0584 598.029 83.9385 597.082 83.8221C597.92 83.5504 598.757 83.2819 599.594 83.0167C600.533 83.0906 601.471 83.1681 602.408 83.249ZM597.941 84.9366C597.053 85.2782 596.165 85.6234 595.277 85.9724C594.235 85.7972 593.192 85.6261 592.148 85.4591C593.043 85.1554 593.938 84.8555 594.832 84.5593C595.87 84.6809 596.907 84.8066 597.941 84.9366ZM593.472 86.6864C592.51 87.0698 591.547 87.4576 590.584 87.8499C589.46 87.6194 588.334 87.3938 587.206 87.1729C588.178 86.8284 589.15 86.4884 590.121 86.1529C591.24 86.3259 592.357 86.5038 593.472 86.6864ZM588.92 88.5324C587.933 88.9397 586.946 89.3517 585.959 89.7685C584.766 89.4809 583.571 89.1986 582.374 88.9217C583.368 88.5542 584.363 88.1915 585.357 87.8336C586.547 88.0611 587.735 88.2941 588.92 88.5324ZM584.41 90.4261C583.361 90.874 582.312 91.3274 581.262 91.7863C580.008 91.4397 578.751 91.0988 577.49 90.7636C578.55 90.3558 579.609 89.9534 580.668 89.5566C581.918 89.8406 583.165 90.1305 584.41 90.4261ZM579.811 92.4246C578.74 92.8979 577.669 93.377 576.597 93.8619C575.289 93.4551 573.977 93.0543 572.662 92.6598C573.743 92.2269 574.823 91.7999 575.903 91.3787C577.209 91.7211 578.511 92.0698 579.811 92.4246ZM575.228 94.4849C574.118 94.9924 573.007 95.5063 571.896 96.0265C570.538 95.5582 569.176 95.0963 567.811 94.6409C568.932 94.174 570.053 93.7135 571.174 93.2593C572.529 93.6613 573.88 94.0699 575.228 94.4849ZM570.598 96.638C569.479 97.1694 568.361 97.7118 567.245 98.265C565.836 97.7319 564.422 97.2056 563.005 96.6861C563.688 96.3866 564.372 96.0912 565.057 95.7999C565.507 95.6084 565.957 95.418 566.407 95.2286C567.808 95.6915 569.205 96.1614 570.598 96.638ZM566.026 98.874C564.896 99.4424 563.768 100.022 562.642 100.612C561.185 100.013 559.725 99.4211 558.259 98.8363C559.4 98.3026 560.542 97.7803 561.687 97.2693C563.137 97.7971 564.584 98.332 566.026 98.874ZM561.489 101.22C560.353 101.823 559.219 102.438 558.086 103.063C556.591 102.398 555.09 101.741 553.584 101.091C554.728 100.523 555.874 99.9658 557.022 99.4201C558.515 100.013 560.004 100.613 561.489 101.22ZM556.991 103.671C555.844 104.312 554.699 104.964 553.555 105.627C552.025 104.897 550.489 104.176 548.949 103.461C550.103 102.855 551.258 102.26 552.415 101.677C553.945 102.334 555.471 102.999 556.991 103.671ZM608.946 79.1404L609.334 79.0287C609.152 79.0387 608.97 79.0489 608.788 79.0592L608.429 79.1417C608.601 79.1411 608.774 79.1407 608.946 79.1404ZM604.936 80.3217L605.118 80.2671L605.467 80.1626C605.129 80.1664 604.791 80.1706 604.453 80.1753L604.029 80.1814C603.594 80.2868 603.16 80.393 602.725 80.5C602.913 80.5066 603.102 80.5133 603.29 80.5201C603.583 80.5308 603.876 80.5418 604.168 80.5531C604.424 80.4757 604.68 80.3986 604.936 80.3217ZM599.478 82.0045C600.065 81.8187 600.653 81.6345 601.24 81.4518C600.55 81.4305 599.86 81.4112 599.17 81.3938C598.585 81.544 597.999 81.6956 597.413 81.8489C598.102 81.8989 598.79 81.9507 599.478 82.0045ZM594.728 83.5404C595.465 83.2968 596.202 83.0558 596.939 82.8173C596.099 82.7573 595.259 82.7002 594.418 82.6459C593.677 82.8461 592.937 83.0488 592.196 83.2541C593.041 83.3467 593.885 83.4422 594.728 83.5404ZM590.029 85.1268C590.846 84.8452 591.663 84.5667 592.479 84.2914C591.52 84.1853 590.559 84.0828 589.597 83.984C588.778 84.2173 587.958 84.4536 587.138 84.6932C588.103 84.8341 589.067 84.9787 590.029 85.1268ZM585.275 86.8C586.185 86.4732 587.094 86.1504 588.003 85.8315C586.949 85.6747 585.893 85.5221 584.835 85.374C583.92 85.6477 583.004 85.9253 582.088 86.207C583.153 86.4004 584.215 86.5981 585.275 86.8ZM580.597 88.5152C581.541 88.1624 582.484 87.8139 583.427 87.4697C582.291 87.2587 581.153 87.0526 580.013 86.8514C579.067 87.1486 578.119 87.45 577.171 87.7558C578.316 88.0041 579.458 88.2572 580.597 88.5152ZM575.842 90.3292C576.859 89.9335 577.876 89.543 578.892 89.1575C577.69 88.8903 576.485 88.6285 575.277 88.3723C574.254 88.7086 573.229 89.05 572.204 89.3966C573.419 89.702 574.632 90.0129 575.842 90.3292ZM571.122 92.2013C572.167 91.7788 573.212 91.362 574.256 90.9505C572.992 90.6251 571.726 90.3055 570.457 89.9919C569.406 90.353 568.355 90.7195 567.302 91.0917C568.579 91.4557 569.852 91.8256 571.122 92.2013ZM566.365 94.1616C567.455 93.7037 568.545 93.2519 569.635 92.8062C568.319 92.4214 567 92.0428 565.677 91.6706C564.579 92.0646 563.48 92.4646 562.38 92.8708C563.712 93.2949 565.04 93.7252 566.365 94.1616ZM564.665 94.8797L564.962 94.7539C563.597 94.3084 562.229 93.8695 560.857 93.4373C560.01 93.7542 559.163 94.0747 558.315 94.399C558.044 94.5025 557.774 94.6068 557.503 94.7116C558.889 95.1984 560.271 95.6917 561.649 96.1916C562.653 95.7455 563.658 95.3082 564.665 94.8797ZM556.986 98.3303C558.101 97.8029 559.217 97.2862 560.335 96.7803C558.919 96.2705 557.499 95.7675 556.075 95.2716C554.942 95.7209 553.811 96.1815 552.682 96.6532C554.121 97.2053 555.555 97.7644 556.986 98.3303ZM552.382 100.574C553.503 100.012 554.627 99.4597 555.752 98.9187C554.29 98.3435 552.822 97.7755 551.351 97.2148C550.214 97.6992 549.079 98.1949 547.946 98.7016C549.429 99.3187 550.908 99.9429 552.382 100.574ZM547.807 102.933C548.941 102.332 550.077 101.742 551.216 101.163C549.714 100.523 548.207 99.8908 546.696 99.2656C545.548 99.7881 544.402 100.322 543.258 100.867C544.779 101.548 546.295 102.237 547.807 102.933ZM542.06 100.332C540.587 99.6769 539.109 99.0288 537.627 98.3878C538.759 97.9029 539.893 97.4289 541.029 96.9662C542.501 97.5519 543.969 98.1448 545.431 98.7447C544.305 99.263 543.182 99.7921 542.06 100.332ZM546.677 98.176C545.246 97.5857 543.811 97.0021 542.371 96.4254C543.491 95.979 544.612 95.5435 545.735 95.119C547.162 95.6405 548.585 96.169 550.004 96.7044C548.893 97.1843 547.784 97.6749 546.677 98.176ZM551.33 96.1371C549.949 95.6122 548.563 95.0937 547.174 94.5818C548.288 94.1707 549.405 93.7705 550.524 93.3813C551.897 93.8382 553.266 94.3018 554.632 94.7719C553.529 95.2164 552.429 95.6715 551.33 96.1371ZM556.053 94.2051C554.732 93.7464 553.407 93.2937 552.079 92.8471C553.175 92.4749 554.269 92.1087 555.363 91.7485C556.681 92.1435 557.995 92.5448 559.306 92.9521C558.857 93.1221 558.407 93.293 557.958 93.465C557.322 93.7081 556.687 93.9549 556.053 94.2051ZM560.829 92.3801C559.564 91.9829 558.296 91.5913 557.025 91.2054C558.097 90.8582 559.167 90.5167 560.237 90.1809C561.5 90.5171 562.759 90.8592 564.016 91.2069C562.954 91.5923 561.892 91.9834 560.829 92.3801ZM565.64 90.6215C564.437 90.2841 563.232 89.9519 562.024 89.6251C563.04 89.3118 564.055 89.0037 565.069 88.7006C566.27 88.9796 567.469 89.2639 568.665 89.5535C567.658 89.9044 566.649 90.2604 565.64 90.6215ZM570.411 88.9505C569.278 88.6715 568.143 88.3972 567.006 88.1277C567.987 87.8405 568.967 87.558 569.946 87.2802C571.076 87.5032 572.203 87.7312 573.329 87.9639C572.357 88.2881 571.384 88.617 570.411 88.9505ZM575.222 87.3382C574.172 87.1163 573.121 86.8985 572.068 86.6849C572.956 86.4388 573.843 86.1965 574.729 85.958C575.779 86.1278 576.827 86.3019 577.873 86.4802C576.99 86.7624 576.106 87.0484 575.222 87.3382ZM579.947 85.8243C578.994 85.6569 578.04 85.493 577.084 85.3326C577.927 85.1118 578.77 84.8944 579.611 84.6802C580.561 84.7995 581.509 84.9223 582.455 85.0486C581.62 85.3038 580.784 85.5624 579.947 85.8243ZM584.758 84.3534C583.929 84.2379 583.1 84.125 582.269 84.0149C582.989 83.8375 583.708 83.6626 584.427 83.4901C585.256 83.5633 586.083 83.6393 586.91 83.718C586.193 83.9274 585.475 84.1392 584.758 84.3534ZM589.508 82.9696C588.836 82.901 588.163 82.8341 587.489 82.769C588.098 82.6284 588.706 82.4896 589.315 82.3524C589.984 82.3862 590.653 82.4218 591.321 82.4592C591.078 82.5271 590.834 82.5953 590.59 82.6638C590.23 82.7651 589.869 82.8671 589.508 82.9696ZM594.317 81.6373C593.861 81.6081 593.404 81.5797 592.948 81.5521C593.339 81.4679 593.731 81.3845 594.122 81.3016C594.582 81.3068 595.041 81.3129 595.5 81.3198C595.106 81.4249 594.711 81.5308 594.317 81.6373ZM599.056 80.3906L598.616 80.38L599.073 80.2894L599.499 80.2775L599.056 80.3906ZM589.228 81.3468L589.53 81.279C589.311 81.2793 589.092 81.2799 588.874 81.2806L588.65 81.3183C588.843 81.3277 589.036 81.3372 589.228 81.3468ZM584.352 82.4796C584.767 82.3802 585.182 82.2817 585.596 82.184C585.085 82.1635 584.573 82.144 584.06 82.1257C583.655 82.1997 583.249 82.2745 582.843 82.35C583.347 82.3922 583.85 82.4354 584.352 82.4796ZM579.548 83.6645C580.13 83.517 580.711 83.371 581.291 83.2266C580.572 83.1694 579.852 83.1142 579.131 83.0611L578.743 83.1379L578.36 83.2139C578.045 83.2768 577.729 83.3401 577.414 83.4039C578.126 83.4887 578.837 83.5756 579.548 83.6645ZM574.677 84.9366C575.416 84.7382 576.154 84.5424 576.892 84.3492C576.024 84.2467 575.155 84.1473 574.284 84.0509C573.547 84.2067 572.809 84.3651 572.071 84.526C572.941 84.6599 573.81 84.7968 574.677 84.9366ZM569.904 86.2526C570.711 86.0242 571.517 85.799 572.323 85.5769C571.336 85.4237 570.347 85.2744 569.356 85.129C568.553 85.3105 567.75 85.495 566.946 85.6827C567.934 85.8689 568.92 86.0589 569.904 86.2526ZM565.037 87.6667C565.953 87.3936 566.869 87.1246 567.783 86.8597C566.704 86.6531 565.622 86.4509 564.539 86.2533C563.621 86.4742 562.702 86.6992 561.783 86.9283C562.869 87.17 563.954 87.4161 565.037 87.6667ZM560.214 89.1401C561.177 88.8386 562.14 88.5416 563.101 88.2493C561.941 87.9863 560.779 87.7285 559.614 87.4757C558.65 87.7222 557.685 87.9733 556.719 88.2289C557.887 88.5277 559.052 88.8314 560.214 89.1401ZM555.349 90.7004C556.377 90.363 557.403 90.0309 558.429 89.704C557.202 89.3834 555.972 89.0683 554.739 88.7589C553.709 89.0379 552.677 89.3222 551.644 89.6118C552.882 89.9692 554.117 90.3321 555.349 90.7004ZM551.256 92.0711C552.067 91.7942 552.878 91.5205 553.688 91.2502C552.401 90.8705 551.111 90.4967 549.818 90.1289C548.757 90.4324 547.695 90.7416 546.631 91.0563C547.93 91.4734 549.225 91.8964 550.517 92.3251C550.763 92.2399 551.01 92.1552 551.256 92.0711ZM545.73 94.0524C546.808 93.6474 547.888 93.2524 548.97 92.8676C547.628 92.4267 546.282 91.992 544.933 91.5638L544.833 91.5939C543.768 91.9151 542.706 92.2461 541.646 92.587C543.011 93.0692 544.372 93.5577 545.73 94.0524ZM541.025 95.8886C542.114 95.4477 543.205 95.017 544.298 94.5966C542.897 94.0902 541.492 93.5904 540.083 93.0975C538.979 93.4634 537.877 93.84 536.777 94.227C538.197 94.7742 539.613 95.3281 541.025 95.8886ZM536.364 97.8436C537.47 97.3636 538.578 96.8941 539.689 96.4352C538.24 95.8641 536.787 95.2999 535.33 94.7428C534.21 95.1471 533.093 95.5623 531.978 95.9882C533.444 96.5997 534.906 97.2182 536.364 97.8436ZM530.639 95.4322C529.235 94.8523 527.828 94.2787 526.417 93.7116C527.512 93.3434 528.611 92.9856 529.711 92.6384C531.112 93.1522 532.508 93.6725 533.901 94.1993C532.811 94.6001 531.724 95.0111 530.639 95.4322ZM535.34 93.6764C533.991 93.1618 532.637 92.6533 531.28 92.151C532.357 91.8217 533.437 91.5026 534.519 91.1937C535.862 91.6431 537.202 92.0987 538.538 92.5605C537.47 92.9226 536.404 93.2946 535.34 93.6764ZM540.092 92.0413C538.808 91.5933 537.52 91.1508 536.23 90.7141C536.851 90.5434 537.473 90.3759 538.096 90.2119C538.543 90.0941 538.99 89.9774 539.437 89.8615C540.71 90.2463 541.98 90.6368 543.247 91.0329C542.193 91.3594 541.142 91.6956 540.092 92.0413ZM544.94 90.5171C543.73 90.1341 542.517 89.7563 541.302 89.3837C542.326 89.1242 543.348 88.8699 544.37 88.6206C545.581 88.9466 546.788 89.2779 547.993 89.6145C546.977 89.9102 545.959 90.2111 544.94 90.5171ZM549.817 89.0891C548.678 88.7659 547.536 88.4474 546.392 88.1337C547.377 87.8994 548.361 87.6699 549.344 87.445C550.482 87.7137 551.618 87.9872 552.752 88.2655C551.775 88.5353 550.797 88.8098 549.817 89.0891ZM554.73 87.7255C553.675 87.4615 552.618 87.2016 551.559 86.9458C552.463 86.7452 553.366 86.5484 554.268 86.3556C555.323 86.5689 556.377 86.7864 557.428 87.0082C556.53 87.2433 555.63 87.4825 554.73 87.7255ZM559.595 86.4484C558.64 86.2419 557.684 86.0388 556.726 85.8392C557.568 85.6654 558.409 85.495 559.25 85.3279C560.203 85.4877 561.155 85.651 562.105 85.8178C561.269 86.0246 560.432 86.2348 559.595 86.4484ZM564.51 85.2317C563.682 85.0812 562.853 84.9334 562.023 84.7882C562.719 84.6557 563.414 84.5254 564.109 84.3974C564.942 84.5074 565.773 84.6202 566.604 84.7357C565.906 84.8987 565.208 85.064 564.51 85.2317ZM569.317 84.1126C568.647 84.0146 567.976 83.9184 567.304 83.8239C567.557 83.7798 567.809 83.736 568.062 83.6924C568.409 83.6326 568.755 83.5734 569.102 83.5147C569.771 83.5791 570.44 83.6453 571.108 83.7133C570.511 83.8447 569.914 83.9778 569.317 84.1126ZM574.234 83.0393C573.787 82.99 573.34 82.9414 572.892 82.8937L573.121 82.8575L573.553 82.7897C573.702 82.7664 573.851 82.7432 574 82.7202C574.454 82.7471 574.908 82.7748 575.362 82.8034L574.964 82.8862L574.688 82.944C574.537 82.9756 574.386 83.0074 574.234 83.0393ZM579.071 82.0539L578.685 82.0259L579.008 81.9804L579.401 81.9891L579.071 82.0539ZM569.065 82.5066L569.273 82.4715C569.103 82.4637 568.933 82.456 568.763 82.4485L568.624 82.4645L569.065 82.5066ZM564.642 83.2831C564.855 83.2444 565.068 83.2059 565.28 83.1676C564.945 83.1389 564.609 83.1107 564.273 83.0829L563.844 83.0477C563.451 83.0983 563.059 83.1496 562.666 83.2016C563.139 83.2619 563.611 83.3232 564.083 83.3854C564.27 83.3511 564.456 83.3171 564.642 83.2831ZM559.235 84.3114C559.788 84.2018 560.34 84.0937 560.892 83.987C560.612 83.9524 560.331 83.9182 560.05 83.8843L559.643 83.8354L559.221 83.7851L558.8 83.7356L558.384 83.7958C557.981 83.8542 557.578 83.9133 557.175 83.9732C557.863 84.0841 558.549 84.1969 559.235 84.3114ZM554.262 85.3343C554.997 85.1776 555.731 85.0235 556.465 84.872C555.616 84.7364 554.766 84.6035 553.915 84.4735C553.663 84.5134 553.412 84.5535 553.16 84.5939C552.678 84.6713 552.195 84.7499 551.712 84.8295C552.563 84.995 553.413 85.1633 554.262 85.3343ZM549.347 86.4185C550.168 86.2314 550.988 86.0475 551.807 85.8668C550.834 85.6769 549.859 85.4905 548.882 85.3079C548.064 85.4496 547.246 85.5945 546.426 85.7426C547.402 85.9643 548.375 86.1897 549.347 86.4185ZM544.382 87.5884C545.301 87.365 546.218 87.1457 547.135 86.9305C546.065 86.6844 544.992 86.4427 543.917 86.2052C542.998 86.3782 542.078 86.5552 541.156 86.7362C542.234 87.0161 543.309 87.3001 544.382 87.5884ZM539.458 88.8232C540.427 88.5728 541.396 88.327 542.363 88.0857C541.21 87.7816 540.054 87.4824 538.896 87.188C537.926 87.3851 536.956 87.5867 535.984 87.7929C537.145 88.1316 538.302 88.475 539.458 88.8232ZM534.542 90.1472C535.558 89.8591 536.575 89.5799 537.595 89.3098C536.373 88.9469 535.149 88.5892 533.921 88.237C533.066 88.4237 532.21 88.6139 531.354 88.8076C531.179 88.8472 531.004 88.887 530.829 88.9272C532.07 89.3285 533.308 89.7352 534.542 90.1472ZM529.736 91.5824C530.77 91.2582 531.806 90.9433 532.845 90.6377C531.547 90.2097 530.247 89.7875 528.942 89.3712C527.89 89.6249 526.841 89.8882 525.793 90.1611C527.111 90.6291 528.425 91.1029 529.736 91.5824ZM524.988 93.1405C526.049 92.7768 527.111 92.4229 528.176 92.0787C526.815 91.5851 525.45 91.0977 524.081 90.6166C523.005 90.9083 521.932 91.2101 520.862 91.5219C522.241 92.0552 523.617 92.5948 524.988 93.1405ZM519.328 90.9319C518.015 90.43 516.699 89.9336 515.38 89.4431C516.42 89.1862 517.462 88.9387 518.508 88.7007C519.815 89.1403 521.119 89.5857 522.42 90.0369C521.387 90.326 520.356 90.6244 519.328 90.9319ZM524.119 89.5703C522.88 89.1359 521.638 88.7066 520.392 88.2826C521.403 88.0642 522.416 87.8546 523.432 87.6541C524.661 88.028 525.888 88.4073 527.112 88.7917C526.112 89.0426 525.115 89.3022 524.119 89.5703ZM528.98 88.3336C527.833 87.9684 526.684 87.6078 525.532 87.2518C526.512 87.068 527.492 86.8887 528.47 86.714C529.614 87.025 530.755 87.3407 531.894 87.6611C531.64 87.7178 531.387 87.7749 531.133 87.8323C530.414 87.9949 529.697 88.162 528.98 88.3336ZM533.954 87.2062C532.897 86.9036 531.837 86.6049 530.776 86.3102C531.682 86.1546 532.587 86.0028 533.491 85.8549C534.551 86.1084 535.608 86.366 536.664 86.6276C535.762 86.8166 534.858 87.0094 533.954 87.2062ZM538.921 86.1626C537.965 85.9204 537.008 85.6815 536.049 85.446C536.889 85.315 537.728 85.1873 538.566 85.0628C539.522 85.2597 540.476 85.4601 541.428 85.6639C540.593 85.8268 539.758 85.993 538.921 86.1626ZM543.933 85.1847C543.108 85.0027 542.281 84.8233 541.452 84.6465C542.162 84.5471 542.872 84.45 543.58 84.3553C544.409 84.4981 545.237 84.6436 546.064 84.7918C545.355 84.9204 544.644 85.0513 543.933 85.1847ZM548.889 84.2918C548.229 84.1685 547.567 84.047 546.905 83.9271C547.496 83.8538 548.086 83.7822 548.677 83.7122C549.338 83.8034 549.998 83.8964 550.657 83.991C550.068 84.0897 549.479 84.1899 548.889 84.2918ZM553.117 83.3413C552.951 83.3164 552.785 83.2917 552.619 83.267C552.945 83.2321 553.271 83.1977 553.597 83.1637C554.041 83.2093 554.485 83.2556 554.928 83.3028C554.59 83.3552 554.251 83.4081 553.912 83.4616C553.647 83.4212 553.382 83.3811 553.117 83.3413ZM558.787 82.7272L558.47 82.6903L558.723 82.6676L559.049 82.6897L558.787 82.7272ZM548.686 82.704L548.735 82.6982L548.478 82.6754L548.686 82.704ZM543.599 83.3438C543.984 83.2926 544.368 83.242 544.752 83.1921C544.288 83.1332 543.824 83.0751 543.359 83.0179C542.982 83.0482 542.605 83.0792 542.228 83.1108C542.686 83.1877 543.143 83.2653 543.599 83.3438ZM538.595 84.0476C539.157 83.9644 539.72 83.8825 540.281 83.8022C539.592 83.6898 538.903 83.5793 538.212 83.4707C537.659 83.5235 537.105 83.5777 536.551 83.6333C537.233 83.7696 537.914 83.9078 538.595 84.0476ZM533.528 84.8356C534.258 84.7167 534.986 84.6003 535.714 84.4863C534.865 84.3181 534.015 84.1526 533.163 83.9899C532.437 84.0699 531.71 84.1523 530.983 84.2371C531.833 84.434 532.681 84.6335 533.528 84.8356ZM528.516 85.6901C529.336 85.5441 530.156 85.4013 530.974 85.2617C529.999 85.0352 529.022 84.8122 528.043 84.5927C527.227 84.6949 526.41 84.8002 525.592 84.9085C526.568 85.1656 527.543 85.4262 528.516 85.6901ZM525.825 86.1797L526.214 86.1076C525.14 85.8221 524.063 85.5408 522.985 85.2637C522.074 85.3913 521.163 85.5227 520.25 85.6579C521.33 85.9761 522.408 86.2984 523.484 86.6247C523.799 86.5629 524.115 86.5019 524.431 86.4418C524.896 86.3534 525.361 86.2661 525.825 86.1797ZM518.56 87.6634C519.507 87.4493 520.457 87.243 521.408 87.0445C520.242 86.6963 519.072 86.3528 517.9 86.0141L517.89 86.0157C516.926 86.1652 515.965 86.3228 515.006 86.4883C516.193 86.8752 517.378 87.267 518.56 87.6634ZM513.719 88.8294C514.708 88.5763 515.7 88.3317 516.694 88.0956C515.437 87.6793 514.177 87.2683 512.914 86.8627C511.908 87.0491 510.905 87.2443 509.904 87.4481C511.179 87.9032 512.451 88.3636 513.719 88.8294ZM508.091 86.8051C506.904 86.3871 505.714 85.9739 504.521 85.5654C505.473 85.4121 506.428 85.2667 507.384 85.1293C508.564 85.4902 509.74 85.8559 510.914 86.2263C509.971 86.4116 509.03 86.6045 508.091 86.8051ZM512.979 85.8337C511.9 85.4879 510.818 85.1461 509.734 84.8084C510.207 84.7472 510.68 84.6879 511.154 84.6305L511.299 84.6131L511.479 84.5914L511.823 84.5503C512.029 84.5258 512.235 84.5014 512.441 84.4772C513.508 84.7697 514.573 85.0662 515.636 85.3667C514.748 85.5156 513.863 85.6713 512.979 85.8337ZM517.966 84.9921C517.011 84.7169 516.055 84.4448 515.097 84.176C515.923 84.0855 516.748 83.998 517.572 83.9137C518.53 84.1455 519.486 84.3806 520.44 84.619C519.616 84.7402 518.791 84.8646 517.966 84.9921ZM523.042 84.246C522.218 84.0349 521.393 83.8262 520.567 83.62C521.27 83.5541 521.972 83.4905 522.674 83.429C523.503 83.6026 524.331 83.7787 525.157 83.9574C524.453 84.0513 523.748 84.1475 523.042 84.246ZM527.153 83.3703C526.81 83.2944 526.467 83.219 526.123 83.144C526.7 83.0992 527.276 83.0559 527.852 83.0141C528.51 83.1302 529.167 83.2478 529.823 83.3672C529.501 83.4057 529.179 83.4447 528.857 83.4842C528.602 83.5154 528.347 83.547 528.091 83.5789C527.779 83.509 527.466 83.4394 527.153 83.3703ZM533.203 82.9794C532.783 82.8994 532.363 82.82 531.943 82.7413L532.216 82.7247L532.571 82.7036L532.949 82.6815C533.379 82.7428 533.808 82.8048 534.237 82.8675C533.893 82.9043 533.548 82.9416 533.203 82.9794ZM538.243 82.4632L538.003 82.4257L538.182 82.4181L538.432 82.4453L538.243 82.4632ZM527.904 82.0078L527.956 82.004L527.682 81.9688L527.904 82.0078ZM522.734 82.4199C522.885 82.4068 523.036 82.3937 523.187 82.3807C523.4 82.3624 523.613 82.3443 523.826 82.3264C523.375 82.2519 522.923 82.1781 522.471 82.1051C522.117 82.1179 521.762 82.1313 521.407 82.1452C521.85 82.236 522.292 82.3276 522.734 82.4199ZM518.496 82.8153C518.762 82.7889 519.028 82.7628 519.293 82.737C518.611 82.6006 517.929 82.4659 517.245 82.333C516.705 82.3606 516.165 82.3895 515.624 82.4196C516.297 82.5786 516.969 82.7392 517.641 82.9014L517.863 82.8789L518.118 82.8531L518.496 82.8153ZM512.518 83.4614C513.23 83.3783 513.942 83.2974 514.653 83.2188C513.808 83.0209 512.961 82.8256 512.112 82.6329C511.406 82.6793 510.699 82.728 509.991 82.7788C510.835 83.0038 511.677 83.2314 512.518 83.4614ZM507.464 84.1078C508.265 83.9938 509.068 83.8853 509.873 83.7823C508.898 83.5219 507.921 83.2648 506.942 83.0111C506.131 83.0765 505.318 83.1447 504.505 83.2159C505.493 83.5099 506.479 83.8072 507.464 84.1078ZM502.519 84.885C503.394 84.7343 504.272 84.5902 505.152 84.4528C504.047 84.1212 502.939 83.7938 501.828 83.4706C500.936 83.5625 500.046 83.6614 499.158 83.767C500.281 84.1355 501.401 84.5081 502.519 84.885ZM496.921 83.0395C495.924 82.7185 494.926 82.4007 493.926 82.0864C494.732 82.0242 495.541 81.9676 496.351 81.9166C497.336 82.1888 498.319 82.4644 499.3 82.7433C498.505 82.8366 497.712 82.9354 496.921 83.0395ZM501.92 82.4559C501.097 82.2166 500.272 81.9797 499.446 81.7451C500.14 81.7102 500.833 81.6775 501.525 81.6467C502.348 81.848 503.17 82.0516 503.99 82.2576C503.298 82.3196 502.609 82.3857 501.92 82.4559ZM507.03 82.0008C506.387 81.8345 505.744 81.6696 505.099 81.5062C505.649 81.4873 506.199 81.4698 506.748 81.4535C507.396 81.5914 508.044 81.7308 508.691 81.8718C508.138 81.9135 507.584 81.9565 507.03 82.0008ZM512.192 81.6255C511.789 81.5342 511.386 81.4434 510.983 81.3533C511.152 81.3503 511.32 81.3474 511.489 81.3447L511.928 81.3378L512.257 81.3971L512.684 81.4746L512.957 81.5244L513.169 81.5631C512.843 81.5834 512.518 81.6042 512.192 81.6255ZM517.316 81.3281L517.16 81.2979L517.238 81.2979L517.411 81.3233L517.316 81.3281ZM501.624 80.6414C501.956 80.6268 502.288 80.6127 502.619 80.5991C502.392 80.5533 502.165 80.5078 501.937 80.4624C501.692 80.4135 501.447 80.3649 501.202 80.3164C500.991 80.3153 500.78 80.3144 500.569 80.3137L500.269 80.3128C500.721 80.4216 501.173 80.5311 501.624 80.6414ZM497.623 80.8398L498.062 80.8158C497.363 80.6513 496.662 80.4885 495.961 80.3274C495.44 80.3323 494.919 80.3384 494.397 80.3455C494.604 80.4015 494.811 80.4577 495.018 80.514C495.498 80.6446 495.977 80.7759 496.456 80.9081C496.844 80.884 497.234 80.8612 497.623 80.8398ZM491.386 81.2969C492.068 81.2346 492.75 81.1762 493.434 81.1218C492.546 80.883 491.655 80.647 490.763 80.4138C490.07 80.4307 489.378 80.4516 488.687 80.4766C489.589 80.7473 490.488 81.0208 491.386 81.2969ZM485.752 79.6064C485.078 79.4091 484.403 79.2133 483.727 79.0191C483.884 79.0199 484.041 79.0209 484.198 79.0221C484.431 79.024 484.665 79.0261 484.898 79.0284L485.333 79.0329C485.568 79.0911 485.804 79.1494 486.039 79.208C486.226 79.2546 486.413 79.3014 486.601 79.3483C486.842 79.4088 487.084 79.4695 487.325 79.5304C486.8 79.5534 486.276 79.5787 485.752 79.6064ZM490.88 79.4107C490.491 79.3091 490.102 79.208 489.712 79.1075C489.998 79.1141 490.284 79.121 490.569 79.1282L490.888 79.1969L491.194 79.2632L491.479 79.3252L491.78 79.3908C491.49 79.3968 491.199 79.4033 490.909 79.41L490.88 79.4107ZM480.246 78.0348C480.55 78.0305 480.853 78.0269 481.157 78.0241C480.715 77.9198 480.273 77.8161 479.83 77.7132C479.534 77.6998 479.238 77.6869 478.942 77.6743C479.377 77.7938 479.812 77.914 480.246 78.0348Z" fill="url(#paint0_linear_1774_2115)"/>
</g>
<defs>
<linearGradient id="paint0_linear_1774_2115" x1="923.5" y1="111.5" x2="161" y2="111" gradientUnits="userSpaceOnUse">
<stop stop-color="#CDDF52"/>
<stop offset="1" stop-color="#CDDF52" stop-opacity="0.2"/>
</linearGradient>
<clipPath id="clip0_1774_2115">
<rect width="916" height="104" fill="white"/>
</clipPath>
</defs>
</svg>
