<svg width="56" height="56" viewBox="0 0 56 56" fill="none" xmlns="http://www.w3.org/2000/svg">
<circle cx="28" cy="28" r="14" fill="#121312"/>
<circle cx="28" cy="28" r="18" stroke="#A09E94" stroke-opacity="0.6" stroke-width="2"/>
<circle cx="28" cy="28" r="22.75" stroke="#A09E94" stroke-opacity="0.4" stroke-width="1.5"/>
<circle cx="28" cy="28" r="27.5" stroke="#A09E94" stroke-opacity="0.2"/>
<path fill-rule="evenodd" clip-rule="evenodd" d="M24.6204 24.8952C24.6204 24.4729 24.9524 24.1307 25.3621 24.1307H30.8164C31.2261 24.1307 31.5581 23.7885 31.5581 23.3661V21.952C31.5581 21.5297 31.2261 21.1875 30.8164 21.1875H25.0459C24.6362 21.1875 24.3042 21.5297 24.3042 21.952V23.0417C24.3042 23.464 23.9722 23.8062 23.5625 23.8062H22.5068C22.0971 23.8062 21.7651 24.1484 21.7651 24.5708V26.9568C21.7651 27.3792 22.0985 27.7042 22.5082 27.7042H23.8801C24.2898 27.7042 24.6218 27.362 24.6218 26.9397L24.6204 24.8952ZM33.6753 27.7044H32.3035C31.8937 27.7044 31.5618 28.0466 31.5618 28.469V30.5214C31.5618 30.9437 31.2298 31.286 30.8201 31.286H25.3624C24.9527 31.286 24.6207 31.6282 24.6207 32.0505V33.4646C24.6207 33.8869 24.9527 34.2291 25.3624 34.2291H31.136C31.5457 34.2291 31.8729 33.8869 31.8729 33.4646V32.3301C31.8729 31.9077 32.2049 31.6081 32.6147 31.6081H33.675C34.0847 31.6081 34.4167 31.2659 34.4167 30.8436V28.4601C34.4167 28.0378 34.085 27.7044 33.6753 27.7044ZM28.7631 26.2179H27.4454C27.0163 26.2179 26.6676 26.577 26.6676 27.0196V28.3779C26.6676 28.8203 27.016 29.1796 27.4454 29.1796H28.7631C29.1923 29.1796 29.5409 28.8205 29.5409 28.3779V27.0196C29.5409 26.5773 29.1926 26.2179 28.7631 26.2179Z" fill="white"/>
</svg>
