<svg width="124" height="30" viewBox="0 0 124 30" fill="none" xmlns="http://www.w3.org/2000/svg">
<mask id="mask0_362_6852" style="mask-type:luminance" maskUnits="userSpaceOnUse" x="0" y="0" width="124" height="30">
<path d="M123.75 0H0V30H123.75V0Z" fill="white"/>
</mask>
<g mask="url(#mask0_362_6852)">
<path fill-rule="evenodd" clip-rule="evenodd" d="M88.879 2.89841C88.879 4.11875 87.8557 5.1001 86.6216 5.1001C85.3584 5.1001 84.3043 4.11875 84.3043 2.89841C84.3043 1.67807 85.3584 0.696716 86.6216 0.696716C87.8557 0.696716 88.879 1.67807 88.879 2.89841ZM88.0356 22.4153H85.1476C84.9059 22.4153 84.7568 22.2662 84.7568 22.0289V7.92553C84.7568 7.68824 84.9076 7.53909 85.1476 7.53909H88.0356C88.3065 7.53909 88.4265 7.68824 88.4265 7.92553V22.0289C88.4265 22.2662 88.2756 22.4153 88.0356 22.4153ZM58.274 13.3696H65.6459C65.8275 13.3696 65.9475 13.2509 65.9167 13.073C65.6459 11.3476 63.961 10.1272 61.8545 10.1272C59.808 10.1272 58.1832 11.3459 57.9432 13.0425C57.9123 13.2204 58.0632 13.3696 58.274 13.3696ZM54.2135 14.8883C54.2135 10.4543 57.4633 7.21196 61.8854 7.21196C66.1875 7.21196 69.7389 10.0984 69.4354 15.4797C69.4354 15.8086 69.1955 16.0459 68.8338 16.0459H58.1832C57.9723 16.0459 57.8815 16.195 57.9123 16.4035C58.0632 18.3085 59.808 19.7662 61.9437 19.7662C63.5068 19.7662 64.8317 19.0526 65.4933 17.8628C65.5842 17.6543 65.7041 17.5645 65.9149 17.5645H68.7738C69.0155 17.5645 69.1664 17.7425 69.0755 18.0408C68.2032 20.839 65.435 22.7424 62.2161 22.7424C57.4924 22.7424 54.2135 19.5289 54.2135 14.8883ZM52.5766 22.4153H40.481C40.2393 22.4153 40.0885 22.2662 40.0936 22.0289V20.273C40.0936 20.034 40.1536 19.7967 40.3336 19.5882L47.7946 10.9594C47.9455 10.7797 47.8255 10.5425 47.6146 10.5425H40.7244C40.4845 10.5425 40.3336 10.3933 40.3336 10.156V7.92382C40.3336 7.68653 40.4845 7.53737 40.7244 7.53737H52.3076C52.5475 7.53737 52.6983 7.68653 52.6983 7.92382V9.62044C52.6983 9.91875 52.6075 10.1272 52.3967 10.3645L44.9049 18.9933C44.754 19.173 44.9049 19.4103 45.1156 19.4103H52.5766C52.8166 19.4103 52.9675 19.5594 52.9675 19.7967V22.0289C52.9675 22.2662 52.8166 22.4153 52.5766 22.4153ZM81.8687 7.53907H79.8823C78.0466 7.53907 76.8742 8.1933 76.2417 9.59156C76.0618 9.97809 75.5492 9.88987 75.5492 9.50175V7.92551C75.5492 7.68822 75.3984 7.53907 75.1585 7.53907H72.6303C72.3904 7.53907 72.2396 7.68822 72.2396 7.92551V22.0289C72.2396 22.2662 72.3904 22.4153 72.6303 22.4153H75.5184C75.7892 22.4153 75.9092 22.2374 75.9092 22.0289V11.973C75.9092 11.6153 76.18 11.2594 76.5708 11.2594H81.8654C82.1053 11.2594 82.2561 11.1102 82.2561 10.8729V7.9272C82.2596 7.68821 82.1087 7.53907 81.8687 7.53907ZM98.9192 19.6188C96.4217 19.6188 94.6461 17.6543 94.6461 14.917C94.6461 12.2391 96.4217 10.3357 98.9192 10.3357C101.417 10.3357 103.221 12.2391 103.221 14.917C103.221 17.6543 101.415 19.6188 98.9192 19.6188ZM98.9483 22.7424C103.581 22.7424 106.891 19.4696 106.891 14.8883C106.891 10.4256 103.581 7.21196 98.9483 7.21196C94.2852 7.21196 90.946 10.4256 90.946 14.8883C90.946 19.4696 94.2852 22.7424 98.9483 22.7424ZM123.723 13.3119V22.0289C123.723 22.2662 123.572 22.4153 123.33 22.4153H120.442C120.202 22.4153 120.051 22.2662 120.051 22.0289V13.9662C120.051 11.6441 118.877 10.3357 116.801 10.3357C114.395 10.3357 113.101 11.7052 113.101 14.3527V22.0289C113.101 22.2662 112.95 22.4153 112.71 22.4153H109.822C109.582 22.4153 109.431 22.2662 109.431 22.0289V7.92552C109.431 7.68823 109.582 7.53908 109.822 7.53908H112.35C112.59 7.53908 112.741 7.68823 112.741 7.95603V9.08654C112.741 9.44419 113.103 9.534 113.343 9.23569C114.366 7.92552 115.96 7.21196 117.856 7.21196C121.345 7.21196 123.723 9.35434 123.723 13.3119Z" fill="black"/>
<path fill-rule="evenodd" clip-rule="evenodd" d="M8.33632 29.4914H21.1448C25.7489 29.4914 29.4809 25.8009 29.4809 21.2481V8.58219C29.4809 4.02933 25.7489 0.338869 21.1448 0.338869L8.33632 0.338867C3.73222 0.338867 0.000245646 4.02933 0.000245249 8.58219L0.000244141 21.2481C0.000243743 25.8009 3.73222 29.4914 8.33632 29.4914ZM21.6099 20.4334C18.9869 18.8157 15.5017 16.8303 12.6368 15.3C11.9415 14.929 11.011 15.0675 10.4406 15.8722C9.37674 17.3711 8.10275 19.2625 7.23228 20.7532C6.87043 21.3568 7.35401 22.1549 8.07773 22.1549H21.0563C21.9917 22.1549 22.3836 20.9841 21.6099 20.4334ZM16.8145 14.8023C14.0464 13.343 10.1643 11.1217 7.40621 9.44306C6.5541 8.92364 6.89427 7.67534 7.88814 7.677C9.51642 7.677 12.1625 7.67659 14.7952 7.67618C17.4013 7.67576 19.9943 7.67536 21.5737 7.67536C22.3692 7.67536 22.7777 8.48997 22.4392 9.06051C21.297 10.9849 20.0129 12.9274 18.9473 14.3768C18.4721 15.0232 17.5082 15.1684 16.8145 14.8023Z" fill="black"/>
</g>
</svg>
