<?xml version="1.0" encoding="utf-8"?>
<!-- Generator: Adobe Illustrator 26.0.1, SVG Export Plug-In . SVG Version: 6.00 Build 0)  -->
<svg version="1.1" id="Layer_1" xmlns="http://www.w3.org/2000/svg" xmlns:xlink="http://www.w3.org/1999/xlink" x="0px" y="0px"
	 viewBox="0 0 468 468" style="enable-background:new 0 0 468 468;" xml:space="preserve">
<circle cx="234" cy="234" r="234" fill="white"/>
<path style="fill:#00193C;" d="M145.8,263.7c12.3,0,24.3-4.1,34-11.6l-78-78c-18.8,24.3-14.3,59.3,10,78.1
	C121.6,259.6,133.5,263.7,145.8,263.7L145.8,263.7z"/>
<path style="fill:#00193C;" d="M377.8,208c0-12.3-4.1-24.3-11.6-34l-78,78c24.3,18.8,59.2,14.3,78-10
	C373.7,232.3,377.8,220.3,377.8,208z"/>
<path style="fill:#00193C;" d="M417.1,123.1l-34.5,34.5c27.8,33.3,23.4,82.9-9.9,110.7c-29.2,24.4-71.6,24.4-100.8,0L234,306.2
	l-37.8-37.8c-33.3,27.8-82.9,23.4-110.7-9.9c-24.4-29.2-24.4-71.6,0-100.8L67.8,140L51,123.1C30.7,156.5,20,194.9,20,234
	c0,118.2,95.8,214,214,214s214-95.8,214-214C448.1,194.9,437.3,156.5,417.1,123.1z"/>
<path style="fill:#00193C;" d="M388.8,86.3c-81.5-85.5-216.9-88.7-302.4-7.2c-2.5,2.4-4.9,4.8-7.2,7.2c-5.3,5.6-10.3,11.4-15,17.5
	L234,273.7L403.8,103.8C399.2,97.7,394.1,91.9,388.8,86.3z M234,48c50,0,96.6,19.3,131.6,54.5L234,234.1L102.4,102.5
	C137.4,67.3,184,48,234,48z"/>
</svg>
