<svg width="24" height="24" viewBox="0 0 24 24" fill="none" xmlns="http://www.w3.org/2000/svg">
<g clip-path="url(#clip0_1763_217)">
<path d="M10.8867 0C13.926 0 16.6734 1.24662 18.6484 3.25488C17.0263 2.29494 15.1347 1.74226 13.1133 1.74219C7.10057 1.74219 2.22567 6.61621 2.22559 12.6289C2.22559 15.6023 3.41936 18.2959 5.35156 20.2607C2.14895 18.3654 0 14.8778 0 10.8867C0.000189661 4.87423 4.87423 0.00019018 10.8867 0Z" fill="#FF0079"/>
<path d="M20.9032 10.8871C20.9032 5.35533 16.4188 0.870966 10.8871 0.870966C5.35533 0.870966 0.870966 5.35533 0.870966 10.8871C0.870966 16.4188 5.35533 20.9032 10.8871 20.9032V21.7741C4.87431 21.7741 0 16.8998 0 10.8871C0 4.87431 4.87431 0 10.8871 0C16.8998 0 21.7741 4.87431 21.7741 10.8871C21.7741 16.8998 16.8998 21.7741 10.8871 21.7741V20.9032C16.4188 20.9032 20.9032 16.4188 20.9032 10.8871Z" fill="black"/>
<path d="M13.1066 2.61292C18.6381 2.61316 23.1222 7.09793 23.1222 12.6295C23.1219 18.1609 18.6379 22.6449 13.1066 22.6451C7.57498 22.6451 3.09021 18.161 3.08997 12.6295C3.08997 7.09777 7.57482 2.61292 13.1066 2.61292Z" fill="white"/>
<path fill-rule="evenodd" clip-rule="evenodd" d="M13.1129 1.74194C19.1256 1.74194 24 6.61625 24 12.629C24 18.6418 19.1256 23.5161 13.1129 23.5161C13.0827 23.5161 13.0525 23.5158 13.0223 23.5155C12.9888 23.5156 12.9552 23.5159 12.9215 23.5159C5.08133 23.5159 1.74197 23.5934 1.74194 20.8587C1.74197 19.8048 2.59951 19.1381 4.08786 18.72C2.91234 16.9816 2.22581 14.8855 2.22581 12.629C2.22581 6.61625 7.10012 1.74194 13.1129 1.74194ZM13.1129 2.61291C7.58114 2.61291 3.09678 7.09727 3.09678 12.629C3.09678 18.1608 7.58114 22.6451 13.1129 22.6451C18.6446 22.6451 23.129 18.1608 23.129 12.629C23.129 7.09727 18.6446 2.61291 13.1129 2.61291Z" fill="black"/>
<path d="M5.7097 14.0322L6.58067 10.2581H7.45164L8.3226 14.0322L9.14518 10.2581H10.0645L8.95163 15.2903H7.93551L7.01615 11.6613L6.0968 15.2903H5.08067L3.96777 10.2581H4.88713L5.7097 14.0322Z" fill="black"/>
<path d="M13.3558 11.129H11.7106V12.1935H13.259V13.0645H11.7106V14.4193H13.3558V15.2903H10.7429V10.2581H13.3558V11.129Z" fill="black"/>
<path d="M17.3226 11.129H15.9677V15.2903H15.0968V11.129H13.8387V10.2581H17.3226V11.129Z" fill="black"/>
<path d="M18.9677 12.1935H20.9032V10.2581H21.7742V15.2903H20.9032V13.0645H18.9677V15.2903H18.0968V10.2581H18.9677V12.1935Z" fill="black"/>
</g>
<defs>
<clipPath id="clip0_1763_217">
<rect width="24" height="24" fill="white"/>
</clipPath>
</defs>
</svg>
