<svg width="24" height="24" viewBox="0 0 24 24" fill="none" xmlns="http://www.w3.org/2000/svg">
<circle cx="12" cy="12" r="12" fill="white"/>
<path fill-rule="evenodd" clip-rule="evenodd" d="M14.3782 11.2147C14.2107 11.3822 14.2112 11.6539 14.3794 11.8207L16.9966 14.418C17.6891 15.1052 17.6913 16.2244 17.0014 16.9142C16.3146 17.6011 15.2014 17.6024 14.513 16.9172L10.3727 12.7968C9.66369 12.0912 9.66231 10.944 10.3696 10.2367L14.5121 6.09427C15.2006 5.40577 16.3168 5.40577 17.0053 6.09427C17.6938 6.78277 17.6938 7.89904 17.0053 8.58754L14.3782 11.2147Z" fill="#01795B"/>
<path fill-rule="evenodd" clip-rule="evenodd" d="M8.72179 11.7903C8.88929 11.6228 8.88876 11.3511 8.72063 11.1843L6.10334 8.587C5.41083 7.89979 5.40868 6.78063 6.09855 6.09076C6.78538 5.40393 7.89853 5.4026 8.58701 6.08777L12.7273 10.2082C13.4363 10.9138 13.4377 12.061 12.7304 12.7683L8.58792 16.9107C7.89942 17.5992 6.78315 17.5992 6.09465 16.9107C5.40616 16.2222 5.40616 15.106 6.09465 14.4175L8.72179 11.7903Z" fill="#09E33A"/>
<path fill-rule="evenodd" clip-rule="evenodd" d="M8.93043 8.9129C9.61499 8.22049 10.7312 8.21413 11.4237 8.89869L16.9986 14.4104C17.691 15.095 17.6973 16.2112 17.0128 16.9036C16.3282 17.5961 15.212 17.6024 14.5195 16.9179L8.94464 11.4061C8.25223 10.7216 8.24587 9.60531 8.93043 8.9129Z" fill="#0DB50A"/>
<path fill-rule="evenodd" clip-rule="evenodd" d="M8.67382 11.79C8.84131 11.6225 8.84079 11.3508 8.67265 11.1839L6.05696 8.58826C5.36165 7.89827 5.35418 6.77624 6.04026 6.07705C6.73135 5.37275 7.86338 5.36469 8.56444 6.05907L12.7436 10.1984C13.4605 10.9085 13.4626 12.0664 12.7482 12.779L8.58887 16.9287C7.89085 17.6251 6.76068 17.6244 6.06348 16.9272C5.36571 16.2294 5.36571 15.0981 6.06348 14.4003L8.67382 11.79Z" fill="#09E33A"/>
<circle cx="15.7594" cy="7.34044" r="1.81065" fill="#09E33A"/>
</svg>
