<svg width="720" height="1024" viewBox="0 0 720 1024" fill="none" xmlns="http://www.w3.org/2000/svg">
<g clip-path="url(#clip0_30_506)">
<rect width="720" height="1024" fill="#CDDF52"/>
<g clip-path="url(#clip1_30_506)">
<path d="M-240.446 393.369C-234.096 391.072 -227.677 388.821 -221.219 386.544C-127.982 353.667 -22.3108 316.384 91.6886 137.475C162.668 28.0302 192.498 -114.878 221.335 -253.08C230.852 -298.629 239.819 -341.653 250.17 -383.187C271.05 -474.493 296.119 -547.114 324.686 -599.008C334.316 -616.521 344.452 -631.824 355.062 -644.964L353.665 -645.89C348.502 -639.474 343.439 -632.6 338.496 -625.152C333.253 -617.252 328.144 -608.795 323.169 -599.754C294.487 -547.624 269.326 -474.803 248.396 -383.27C238.035 -341.691 229.042 -298.658 219.539 -253.099C190.737 -115.134 160.97 27.5289 90.2525 136.549C-23.269 314.707 -128.513 351.831 -221.4 384.575C-227.858 386.853 -234.29 389.122 -240.628 391.401C-337.934 425.926 -416.915 466.983 -467.291 643.49L-465.783 644.49C-415.741 468.517 -337.238 427.664 -240.462 393.333L-240.446 393.369Z" fill="#8D9746"/>
<path d="M-219.01 445.571C-214.913 444.487 -210.802 443.413 -206.665 442.33C-109.566 416.934 0.464389 388.14 108.212 216.047C169.192 115.46 198.972 -19.0713 227.754 -149.161C238.434 -197.402 249.473 -247.305 261.916 -294.507C288.004 -392.903 318.092 -466.36 353.951 -519.276C375.161 -551.056 399.624 -577.346 426.548 -597.526L425.012 -598.545C398.162 -578.264 373.753 -551.964 352.567 -520.22C316.522 -467.115 286.326 -393.313 260.165 -294.626C247.712 -247.379 236.662 -197.458 225.984 -149.19C197.239 -19.309 167.524 115.004 106.782 215.202C-0.348104 386.456 -109.966 415.082 -206.647 440.363C-210.784 441.446 -214.895 442.521 -218.992 443.605C-270.447 456.757 -316.364 470.199 -357.458 501.704C-378.465 517.816 -396.775 537.591 -412.851 561.815C-428.926 586.04 -443.486 616.191 -455.769 651.184L-454.303 652.156C-402.173 503.185 -323.46 472.287 -219.008 445.599L-219.01 445.571Z" fill="#8D9746"/>
<path d="M-248.114 375.319C-240.965 372.485 -233.732 369.706 -226.435 366.891C-134.539 331.459 -30.3894 291.318 85.7658 110.585C161.021 -4.30325 191.558 -151.974 221.088 -294.794C229.622 -336.075 237.682 -375.067 246.743 -412.717C266.557 -503.143 289.748 -574.692 315.65 -625.359C321.84 -637.474 328.242 -648.484 334.83 -658.382L333.434 -659.308C333.434 -659.308 333.338 -659.163 333.29 -659.091C326.691 -649.148 320.304 -638.128 314.102 -625.996C288.096 -575.111 264.826 -503.353 244.961 -412.728C235.914 -375.068 227.842 -336.058 219.296 -294.76C189.814 -152.194 159.313 -4.75919 84.3596 109.705C-31.3278 289.732 -135.09 329.713 -226.651 365.004C-233.961 367.809 -241.192 370.616 -248.343 373.423C-344.08 410.916 -421.776 455.037 -471.186 640.934L-469.664 641.943C-420.581 456.508 -343.322 412.591 -248.114 375.319Z" fill="#8D9746"/>
<path d="M-367.651 480.13C-327.225 443.208 -280.912 426.411 -233.029 411.098C-227.456 409.275 -221.816 407.47 -216.163 405.648C-121.613 375.308 -14.4705 340.927 97.4129 164.026C164.425 59.864 193.578 -78.2071 221.755 -211.718C232.241 -261.363 242.153 -308.265 253.903 -353.635C275.9 -445.684 302.902 -519.34 334.129 -572.516C347.528 -595.314 361.843 -614.614 377.025 -630.371L375.587 -631.325C360.385 -615.477 346.048 -596.113 332.648 -573.316C301.28 -519.895 274.176 -445.995 252.128 -353.718C240.354 -308.312 230.457 -261.401 219.961 -211.711C191.819 -78.4359 162.716 59.4081 95.9807 163.155C-15.3648 339.215 -122.09 373.482 -216.262 403.708C-221.929 405.521 -227.556 407.334 -233.129 409.157C-281.245 424.55 -327.804 441.445 -368.592 478.699C-384.075 492.851 -398.028 509.241 -410.673 528.295C-431.571 559.787 -448.851 598.522 -463.394 646.101L-461.9 647.092C-438.676 570.827 -408.487 517.457 -367.637 480.139L-367.651 480.13Z" fill="#8D9746"/>
<path d="M-362.093 491.783C-321.511 457.777 -274.507 442.453 -225.875 428.496C-221.045 427.065 -216.187 425.653 -211.289 424.241C-115.444 396.401 -6.78277 364.823 102.938 190.211C167.648 84.5483 197.857 -54.9316 227.066 -189.815C236.742 -234.452 246.72 -280.607 257.728 -324.1C282.901 -423.39 310.235 -493.909 343.757 -546.031C360.928 -573.148 380.348 -595.989 401.526 -614.147L400.032 -615.138C378.888 -596.879 359.484 -574.002 342.325 -546.903C308.646 -494.546 281.198 -423.763 255.953 -324.183C244.948 -280.663 234.931 -234.481 225.27 -189.835C196.098 -55.1605 165.954 84.1016 101.48 189.348C-7.70693 363.065 -115.922 394.547 -211.365 422.264C-216.249 423.685 -221.121 425.088 -225.951 426.519C-274.792 440.52 -322.028 455.95 -362.988 490.252C-381.197 505.512 -397.36 523.717 -411.756 545.411C-430.435 573.558 -446.167 607.566 -459.61 648.61L-458.117 649.601C-434.427 577.029 -403.695 526.597 -362.121 491.764L-362.093 491.783Z" fill="#8D9746"/>
<path d="M-391.319 431.836C-356.1 387.218 -316.559 362.961 -264.191 338.282C-255.342 334.128 -246.548 330.119 -237.254 325.869C-148.083 285.271 -46.9864 239.278 73.4574 55.8706C73.9493 55.1294 74.4172 54.4243 74.909 53.6831C158.539 -72.3397 191.87 -235.341 221.297 -379.218C227.898 -411.497 234.123 -441.995 240.789 -471.523C259.196 -562.283 279.126 -632.22 300.433 -681.144L299.065 -682.052C277.501 -632.802 257.435 -562.539 238.981 -471.525C232.314 -441.997 226.09 -411.499 219.49 -379.193C189.947 -234.716 156.523 -70.9689 72.0492 54.9626C71.0055 56.5354 69.9738 58.0901 68.9421 59.6449C-49.742 238.492 -149.522 283.926 -237.613 324.017C-246.922 328.257 -255.715 332.266 -264.576 336.439C-317.266 361.269 -357.073 385.714 -392.61 430.72C-430.387 478.589 -458.143 544.169 -479.141 635.683L-477.591 636.711C-456.655 545.077 -429.003 479.533 -391.347 431.818L-391.319 431.836Z" fill="#8D9746"/>
<path d="M-281.209 299.997C-270.468 294.051 -259.723 288.343 -248.348 282.323C-161.955 236.549 -64.0483 184.666 60.6506 -0.0329075C156.359 -138.743 191.683 -312.111 222.851 -465.065C227.462 -487.678 231.816 -509.055 236.296 -529.957C250.256 -603.593 262.997 -658.121 274.434 -698.414L273.122 -699.284C257.382 -644.115 243.793 -579.007 234.49 -529.931C230.007 -509.057 225.654 -487.68 221.045 -465.04C189.913 -312.322 154.635 -139.235 59.2663 -0.976941C-65.0606 183.162 -162.686 234.893 -248.809 280.533C-260.196 286.571 -270.955 292.27 -281.708 298.234C-367.615 346.334 -442.613 405.236 -487.169 630.358L-485.591 631.405C-441.271 406.517 -366.694 347.856 -281.235 300.006L-281.209 299.997Z" fill="#8D9746"/>
<path d="M-290.05 280.413C-278.271 273.36 -266.417 266.616 -253.873 259.471C-168.889 211.123 -72.5593 156.345 54.1196 -28.3685C156.013 -173.702 193.869 -359.399 224.296 -508.601C227.865 -526.098 231.237 -542.633 234.665 -558.948C245.44 -617.514 255.519 -665.971 264.633 -704.914L263.125 -705.914C252.649 -661.131 242.133 -609.319 232.858 -558.923C229.429 -542.635 226.056 -526.1 222.488 -508.603C192.111 -359.628 154.311 -174.258 52.7455 -29.358C-73.5836 154.859 -169.657 209.494 -254.4 257.689C-266.958 264.825 -278.812 271.569 -290.628 278.65C-338.962 308.035 -378.108 338.725 -411.996 392.973C-446.98 448.994 -472.417 524.079 -491.275 627.608L-489.656 628.683C-446.843 393.371 -373.816 331.287 -290.078 280.395L-290.05 280.413Z" fill="#8D9746"/>
<path d="M-397.588 419.347C-372.521 384.996 -341.674 354.844 -272.588 319.305C-262.816 314.305 -253.082 309.514 -242.782 304.446C-154.993 261.266 -55.4923 212.314 67.1122 28.074C157.174 -104.279 191.514 -273.042 221.883 -421.944C227.495 -449.489 232.806 -475.49 238.354 -500.788C253.865 -580.034 270.017 -643.52 286.486 -690.395L284.852 -691.479C268.371 -644.586 252.241 -580.981 236.559 -500.78C230.997 -475.492 225.7 -449.482 220.076 -421.918C189.755 -273.27 155.438 -104.753 65.714 27.1207C-56.5066 210.782 -155.688 259.555 -243.193 302.612C-253.505 307.697 -263.253 312.479 -273.025 317.479C-360.639 362.546 -437.156 418.072 -483.133 633.034L-481.584 634.062C-461.319 538.442 -434.387 469.739 -397.616 419.329L-397.588 419.347Z" fill="#8D9746"/>
<path d="M-299.098 260.537C-286.202 252.193 -273.144 244.243 -259.322 235.837C-175.742 184.97 -81.0021 127.315 47.5167 -56.9591C156.177 -209.338 195.04 -399.704 226.274 -552.667C228.712 -564.613 231.101 -576.333 233.481 -587.798C241.675 -633.444 249.548 -674.668 256.617 -710.256L255.039 -711.302C248.077 -676.269 240.083 -634.499 231.691 -587.736C229.309 -576.298 226.932 -564.597 224.493 -552.65C193.322 -399.932 154.53 -209.857 46.1686 -57.9574C-82.0383 125.847 -176.523 183.359 -259.887 234.082C-273.721 242.507 -286.792 250.448 -299.726 258.818C-347.08 289.999 -385.413 322.555 -418.681 380.08C-452.68 438.889 -477.27 517.242 -495.327 624.896L-493.693 625.98C-475.751 519.135 -450.644 438.729 -417.174 380.87C-384.193 323.807 -346.096 291.485 -299.072 260.528L-299.098 260.537Z" fill="#8D9746"/>
<path d="M-385.181 444.161C-345.713 397.987 -299.737 375.759 -256.014 356.957C-248.032 353.504 -240.132 350.204 -231.768 346.691C-141.227 308.694 -38.6288 265.649 79.7178 83.4023C159.529 -37.1085 192.241 -196.329 221.087 -336.816C228.662 -373.682 235.811 -408.513 243.632 -442.144C262.444 -531.515 283.786 -601.974 307.068 -651.541C310.206 -658.208 313.382 -664.511 316.611 -670.466L315.215 -671.392C311.928 -665.319 308.679 -658.908 305.498 -652.114C282.136 -602.366 260.714 -531.726 241.862 -442.173C234.043 -408.515 226.893 -373.684 219.307 -336.799C190.496 -196.548 157.845 -37.6006 78.3216 82.4763C-39.4893 264.037 -141.805 306.93 -232.024 344.803C-240.387 348.316 -248.299 351.634 -256.281 355.088C-300.248 374.014 -346.52 396.384 -386.344 442.973C-425.003 488.2 -453.459 550.686 -475.108 638.332L-473.572 639.35C-451.995 551.631 -423.666 489.217 -385.167 444.17L-385.181 444.161Z" fill="#8D9746"/>
<path d="M-204.014 571.893C-194.428 571.143 -184.499 570.361 -174.658 569.468C-120.576 565.295 -67.5549 559.872 -13.2173 539.467C53.6356 513.746 102.277 471.807 139.832 407.52C177.084 343.474 201.327 258.798 229.394 160.752C249.937 88.9821 271.195 14.7711 300.217 -60.5649C339.082 -158.61 388.469 -240.122 447.008 -302.885C501.152 -362.054 570.175 -412.709 648.024 -450.636L646.265 -451.803C568.699 -413.817 499.912 -363.215 445.854 -304.145C387.079 -241.148 337.514 -159.338 298.501 -60.9481C269.435 14.5149 248.167 88.7713 227.602 160.604C199.588 258.478 175.376 343.019 138.301 406.765C101.067 470.51 52.837 512.071 -13.4587 537.589C-67.5507 557.896 -120.44 563.302 -174.376 567.468C-184.206 568.342 -194.135 569.125 -203.721 569.875C-289.091 576.597 -369.966 582.968 -421.097 660.017C-423.22 663.217 -425.29 666.609 -427.302 670.065L-425.934 670.972C-375.983 585.46 -292.425 578.864 -204.026 571.911L-204.014 571.893Z" fill="#8D9746"/>
<path d="M-351.523 514.545C-310.825 486.031 -264.569 473.986 -212.683 462.213L-202.51 459.822C-104.27 436.798 7.09883 410.714 113.257 241.471C170.308 145.985 199.587 16.8749 227.895 -107.984C239.706 -160.083 251.923 -213.943 266.048 -265.132C293.521 -363.859 325.67 -438.241 364.421 -492.545C389.81 -528.713 419.608 -558.286 452.57 -580.293L450.992 -581.339C418.132 -559.212 388.426 -529.657 363.087 -493.534C324.182 -438.967 291.879 -364.323 264.321 -265.288C250.177 -214.008 237.948 -160.129 226.138 -108.004C197.869 16.6465 168.642 145.557 111.841 240.636C6.24056 408.947 -104.606 434.909 -202.414 457.829L-212.586 460.22C-264.683 472.036 -311.147 484.152 -352.174 512.89C-375.96 529.554 -396.327 550.671 -413.963 577.246C-428.335 598.904 -440.889 624.215 -451.976 653.648L-450.524 654.611C-426.02 589.296 -394.32 544.557 -351.483 514.545L-351.523 514.545Z" fill="#8D9746"/>
<path d="M-203.288 557.951C-195.207 557.166 -187.048 556.355 -178.865 555.508C-173.396 554.84 -167.846 554.173 -162.256 553.506C-114.464 547.843 -60.3062 541.404 -8.52888 518.676C50.8152 492.636 98.4425 448.983 137.07 385.199C176.801 316.965 202.619 223.128 229.969 123.799C249.072 54.3808 268.831 -17.3883 295.182 -89.3666C332.107 -187.579 378.938 -268.573 434.376 -330.086C484.797 -387.038 548.263 -434.713 619.598 -469.49L617.838 -470.656C546.775 -435.804 483.533 -388.163 433.224 -331.319C377.538 -269.554 330.529 -188.261 293.482 -89.7132C267.084 -17.6352 247.318 54.2066 228.191 123.661C200.908 222.827 175.119 316.5 135.59 384.4C97.2823 447.641 50.0186 490.988 -8.84815 516.824C-60.3419 539.428 -114.356 545.832 -162.028 551.497C-167.618 552.163 -173.156 552.812 -178.612 553.489C-186.781 554.346 -194.927 555.139 -203.02 555.942C-287.8 564.228 -368.249 572.079 -420.471 650.773C-424.01 656.106 -427.418 661.786 -430.708 667.805L-429.298 668.74C-378.405 575.08 -293.296 566.753 -203.288 557.951Z" fill="#8D9746"/>
<path d="M-207.342 611.055C-193.002 610.776 -178.159 610.467 -163.389 609.875C-115.003 608.589 -58.6857 605.743 -2.71865 588.215C63.9658 566.626 111.081 529.533 145.503 471.421C176.304 414.916 201.675 341.506 222.431 277.142C226.371 265.176 230.329 252.909 234.377 240.415C255.916 173.811 280.337 98.2872 314.998 24.6343C360.203 -72.3302 417.759 -155.063 486.063 -221.269C549.69 -284.275 632.608 -342.507 732.703 -394.475L730.986 -395.614C631.258 -343.715 548.548 -285.554 485.06 -222.636C416.521 -156.197 358.771 -73.202 313.416 24.0795C278.673 97.8863 254.23 173.473 232.671 240.169C228.622 252.662 224.676 264.911 220.724 276.896C200.013 341.133 174.685 414.416 144.012 470.667C109.945 528.155 63.2951 564.88 -2.81828 586.275C-58.5517 603.723 -114.724 606.562 -163.016 607.858C-177.785 608.45 -192.602 608.75 -206.942 609.029C-290.987 610.694 -370.374 612.247 -417.659 676.381L-416.997 676.898L-416.285 677.371C-369.724 614.266 -290.842 612.717 -207.328 611.064L-207.342 611.055Z" fill="#8D9746"/>
<path d="M-205.622 598.527C-192.946 598.03 -179.832 597.537 -166.801 596.807C-117.953 594.735 -61.1952 590.983 -5.76196 572.502C60.9979 549.558 108.608 510.84 144.05 450.644C175.941 392.467 201.078 317.289 221.461 251.427C225.728 237.907 229.911 224.332 234.354 209.939C254.757 143.805 277.864 68.8676 310.131 -3.50969C353.148 -100.935 407.883 -183.326 472.837 -248.422C533.349 -310.37 613.213 -367.06 704.641 -413.087L702.895 -414.245C611.802 -368.205 532.197 -311.603 471.794 -249.79C406.591 -184.469 351.652 -101.772 308.51 -4.03754C276.188 68.4848 253.049 143.531 232.624 209.729C228.192 224.103 223.997 237.697 219.73 251.217C199.38 316.969 174.298 392.003 142.562 449.918C107.461 509.507 60.3032 547.847 -5.88561 570.598C-61.0852 588.999 -117.697 592.743 -166.439 594.808C-179.47 595.538 -192.571 596.04 -205.246 596.537C-291.114 599.857 -372.247 603.011 -420.792 674.407L-419.396 675.333C-371.545 605.013 -290.943 601.871 -205.606 598.563L-205.622 598.527Z" fill="#8D9746"/>
<path d="M-204.539 585.472C-193.43 584.821 -181.964 584.147 -170.562 583.326C-119.033 580.272 -64.144 575.671 -9.27055 556.247C57.5508 531.937 105.643 491.613 142.122 429.371C176.983 369.415 200.802 289.587 228.381 197.126C249.415 126.646 273.255 46.7269 305.149 -31.9373C346.041 -129.705 398.065 -211.707 459.789 -275.664C517.388 -336.524 591.886 -390.187 676.396 -431.82L674.651 -432.978C590.462 -391.314 516.198 -337.73 458.725 -276.968C396.779 -212.768 344.561 -130.505 303.535 -32.3831C271.57 46.4169 247.721 126.381 226.664 196.925C199.126 289.204 175.351 368.905 140.656 428.581C104.523 490.271 56.8282 530.208 -9.44802 554.333C-64.0878 573.678 -118.831 578.271 -170.24 581.327C-181.643 582.147 -193.109 582.822 -204.206 583.455C-290.257 588.476 -371.673 593.239 -421.58 668.444C-422.407 669.691 -423.205 670.984 -424.017 672.268L-422.635 673.185C-373.632 595.402 -291.489 590.575 -204.551 585.491L-204.539 585.472Z" fill="#8D9746"/>
<path d="M-200.337 494.665L-194.471 493.582C-93.8873 475.237 20.0807 454.417 122.479 291.142C173.039 205.227 200.246 91.6921 229.061 -28.5088C243.116 -87.138 257.64 -147.747 275.286 -206.182C305.734 -305.513 342.124 -381.56 386.513 -438.633C420.386 -482.921 461.254 -518.69 506.815 -544.291L505.14 -545.402C459.76 -519.681 419.04 -483.892 385.239 -439.713C340.644 -382.359 304.114 -306.041 273.543 -206.374C255.876 -147.876 241.342 -87.2214 227.289 -28.5648C198.526 91.4363 171.359 204.79 121.037 290.316C19.2503 452.669 -94.1985 473.312 -194.335 491.59L-200.189 492.654C-255.548 502.176 -301.148 511.323 -341.978 534.855C-371.611 551.937 -396.081 575.176 -416.619 606.126C-426.888 621.601 -436.166 639.036 -444.615 658.555L-443.191 659.5C-385.628 526.551 -295.545 511.03 -200.311 494.656L-200.337 494.665Z" fill="#8D9746"/>
<path d="M-346.415 525.664C-305.716 499.754 -260.839 489.424 -206.37 478.609L-198.366 476.94C-98.9338 456.269 13.7697 432.84 117.996 266.508C171.713 175.866 199.297 57.3997 228.493 -68.0417C241.395 -123.479 254.745 -180.804 270.562 -235.635C299.487 -334.701 333.743 -409.925 375.278 -465.637C404.899 -506.001 440.177 -538.709 479.366 -562.496L477.732 -563.58C438.673 -539.655 403.515 -506.945 373.954 -466.671C332.211 -410.707 297.829 -335.202 268.808 -235.81C252.971 -180.888 239.608 -123.544 226.709 -68.0797C197.55 57.1527 170.007 175.437 116.54 265.673C12.9234 431.056 -99.2829 454.371 -198.284 474.938L-206.288 476.607C-260.966 487.465 -306.039 497.848 -347.055 523.964C-373.73 540.951 -396.181 563.238 -415.316 592.073C-427.612 610.603 -438.517 631.853 -448.327 656.119L-446.903 657.064C-422.038 595.295 -389.912 553.337 -346.455 525.664L-346.415 525.664Z" fill="#8D9746"/>
<path d="M-203.832 543.349C-197.148 542.549 -190.412 541.732 -183.639 540.887C-178.019 540.084 -172.331 539.3 -166.578 538.508C-118.943 531.96 -64.9353 524.536 -13.1007 500.57C46.3009 473.11 94.403 427.923 133.967 362.365C176.3 289.817 202.512 190.93 230.262 86.2424C247.979 19.3677 266.329 -49.7946 290.202 -118.34C325.744 -218.016 368.884 -296.173 422.038 -357.275C468.462 -411.567 526.316 -456.299 591.172 -488.343L589.427 -489.5C524.83 -457.362 467.187 -412.646 420.85 -358.453C367.462 -297.09 324.156 -218.653 288.491 -118.642C264.587 -49.9869 246.226 19.2207 228.5 86.1409C200.804 190.656 174.631 289.361 132.501 361.575C44.3876 507.534 -67.5782 522.913 -166.364 536.489C-172.118 537.281 -177.805 538.065 -183.413 538.85C-190.161 539.686 -196.896 540.503 -203.58 541.304C-287.238 551.323 -366.743 560.841 -419.709 640.656C-424.759 648.267 -429.561 656.564 -434.117 665.519L-432.72 666.445C-381.087 564.58 -294.94 554.233 -203.82 543.331L-203.832 543.349Z" fill="#8D9746"/>
<path d="M-206.297 512.582C-202.276 511.917 -198.229 511.242 -194.171 510.549C-188.187 509.441 -182.122 508.361 -175.991 507.272C-128.783 498.853 -75.2859 489.32 -23.3667 462.833C36.0681 432.505 85.1198 384.251 126.65 315.336C174.577 233.872 201.518 124.95 230.044 9.60874C245.198 -51.6763 260.879 -115.059 280.342 -176.688C312.382 -276.265 350.911 -353.081 398.126 -411.534C436.217 -459.481 482.717 -498.284 534.679 -525.835L532.976 -526.965C481.221 -499.302 434.893 -460.515 396.873 -412.677C349.439 -353.953 310.758 -276.848 278.608 -176.953C259.122 -115.26 243.432 -51.8324 228.268 9.49803C199.794 124.64 172.895 233.407 125.168 314.51C32.6266 468.051 -78.1186 487.832 -175.871 505.243C-182.002 506.332 -188.067 507.412 -194.051 508.52C-198.097 509.195 -202.13 509.879 -206.151 510.544C-287.06 524.027 -364.174 536.85 -417.967 617.912C-426.305 630.476 -434.072 644.695 -441.21 660.815L-439.786 661.759C-387.115 542.697 -299.23 528.035 -206.311 512.573L-206.297 512.582Z" fill="#8D9746"/>
<path d="M-204.853 528.223C-199.522 527.462 -194.152 526.702 -188.758 525.906C-182.962 524.959 -177.099 524.032 -171.182 523.114C-123.745 515.653 -69.958 507.197 -18.08 481.985C41.3391 453.104 89.916 406.384 130.46 339.107C175.522 262.173 202.104 158.246 230.241 48.2173C246.649 -15.9584 263.633 -82.304 285.212 -147.424C318.96 -247.092 359.754 -324.593 409.916 -384.398C452.221 -435.694 504.397 -477.475 562.803 -507.132L561.072 -508.28C502.913 -478.511 450.909 -436.747 408.702 -385.567C358.306 -325.501 317.36 -247.711 283.504 -147.698C261.891 -82.4963 244.897 -16.1053 228.478 48.1159C200.381 157.963 173.84 261.708 128.98 338.307C38.7245 488.131 -72.7148 505.656 -171.02 521.112C-176.949 522.048 -182.813 522.976 -188.596 523.904C-193.978 524.683 -199.335 525.452 -204.665 526.212C-287.015 537.958 -365.417 549.146 -418.898 629.738C-425.557 639.772 -431.817 650.902 -437.659 663.221L-436.235 664.165C-384.027 553.83 -296.953 541.39 -204.851 528.25L-204.853 528.223Z" fill="#8D9746"/>
</g>
<g clip-path="url(#clip2_30_506)">
<path d="M675.56 501.791C669.783 505.287 663.929 508.752 658.042 512.25C573.054 562.75 476.736 620.005 400.003 817.772C351.844 938.997 350.595 1084.98 349.397 1226.15C348.99 1272.68 348.627 1316.63 346.616 1359.38C344.031 1453.01 333.678 1529.13 315.834 1585.62C309.822 1604.68 302.881 1621.67 295.052 1636.63L296.602 1637.27C300.408 1629.96 304.027 1622.23 307.414 1613.96C311.007 1605.18 314.361 1595.89 317.467 1586.05C335.379 1529.31 345.783 1452.98 348.372 1359.12C350.385 1316.32 350.771 1272.35 351.163 1225.82C352.372 1084.88 353.607 939.157 401.592 818.399C478.004 621.462 573.935 564.446 658.606 514.145C664.492 510.647 670.355 507.162 676.124 503.686C764.78 450.773 834.184 395.044 848.998 212.091L847.324 211.406C832.733 393.77 763.756 449.205 675.583 501.824L675.56 501.791Z" fill="#8D9746"/>
<path d="M644.309 454.799C640.504 456.664 636.683 458.522 632.838 460.395C542.597 504.314 440.341 554.098 368.402 743.959C328.314 854.539 325.473 992.296 322.739 1125.5C321.719 1174.9 320.672 1226 317.72 1274.72C311.418 1376.32 296.307 1454.25 271.511 1513.16C256.94 1548.48 238.102 1579.05 215.654 1604.11L217.36 1604.81C239.715 1579.66 258.498 1549.09 273.054 1513.82C297.995 1454.68 313.144 1376.39 319.46 1274.5C322.413 1225.73 323.468 1174.61 324.48 1125.18C327.218 992.19 330.039 854.659 369.97 744.507C441.467 555.591 543.352 506.053 633.206 462.327C637.051 460.454 640.871 458.596 644.677 456.731C692.558 433.756 734.951 411.583 769.075 372.64C786.518 352.726 800.598 329.749 811.616 302.845C822.633 275.941 831.002 243.523 836.191 206.803L834.563 206.136C812.634 362.43 741.5 408.145 644.302 454.772L644.309 454.799Z" fill="#8D9746"/>
<path d="M686.614 517.99C680.159 522.169 673.611 526.311 667.007 530.5C583.834 583.243 489.568 643.003 411.078 842.982C359.793 970.382 358.784 1121.17 357.812 1267.01C357.532 1309.16 357.268 1348.97 355.761 1387.67C354.05 1480.22 345.328 1554.93 329.856 1609.69C326.16 1622.78 322.04 1634.83 317.519 1645.83L319.07 1646.46C319.07 1646.46 319.135 1646.3 319.168 1646.22C323.69 1635.18 327.795 1623.12 331.499 1610.01C347.031 1555.02 355.788 1480.09 357.511 1387.33C359.003 1348.63 359.275 1308.8 359.563 1266.62C360.537 1121.05 361.557 970.495 412.63 843.57C490.799 644.374 584.716 584.847 667.588 532.309C674.207 528.126 680.748 523.958 687.21 519.804C773.746 464.289 841.291 405.806 853.317 213.835L851.626 213.143C839.83 404.599 772.674 462.795 686.614 517.99Z" fill="#8D9746"/>
<path d="M783.298 391.8C750.89 435.923 708.765 461.464 664.811 485.859C659.703 488.738 654.525 491.612 649.339 494.506C562.567 542.775 464.236 597.472 389.185 792.857C343.882 908.125 342.349 1049.23 340.879 1185.67C340.324 1236.41 339.795 1284.34 337.163 1331.14C333.629 1425.71 321.583 1503.23 301.381 1561.49C292.709 1586.47 282.452 1608.2 270.652 1626.62L272.249 1627.28C284.051 1608.76 294.317 1586.96 302.989 1561.98C323.282 1503.45 335.381 1425.68 338.919 1330.87C341.568 1284.04 342.081 1236.1 342.637 1185.31C344.118 1049.11 345.646 908.237 390.76 793.431C465.449 598.976 563.392 544.472 649.817 496.389C655.018 493.502 660.181 490.622 665.289 487.742C709.456 463.224 751.803 437.539 784.5 393.019C796.911 376.109 807.382 357.304 816.048 336.142C830.37 301.168 839.725 259.8 844.663 210.294L843.004 209.615C835.174 288.951 816.028 347.199 783.282 391.793L783.298 391.8Z" fill="#8D9746"/>
<path d="M775.565 381.461C742.432 422.756 699.341 446.988 654.387 470.199C649.931 472.548 645.444 474.884 640.918 477.228C552.384 523.299 452.016 575.544 378.636 768.261C335.885 884.55 333.593 1027.24 331.38 1165.23C330.638 1210.9 329.897 1258.12 327.625 1302.92C322.396 1405.22 309.41 1479.72 286.75 1537.4C275.225 1567.36 260.658 1593.56 243.448 1615.51L245.107 1616.19C262.264 1594.14 276.809 1567.91 288.325 1537.98C311.092 1480.04 324.138 1405.25 329.382 1302.66C331.646 1257.82 332.419 1210.57 333.145 1164.9C335.362 1027.12 337.634 884.656 380.235 768.822C453.267 577.088 553.217 525.023 641.379 479.151C645.89 476.801 650.393 474.471 654.849 472.122C700 448.828 743.297 424.446 776.742 382.787C791.608 364.257 803.891 343.239 813.757 319.146C826.558 287.886 835.321 251.456 840.462 208.574L838.803 207.895C829.793 283.701 809.538 339.174 775.596 381.474L775.565 381.461Z" fill="#8D9746"/>
<path d="M815.972 434.522C790.178 485.174 756.156 516.704 709.638 551.161C701.775 556.968 693.937 562.621 685.656 568.609C606.167 625.883 516.042 690.784 433.871 894.226C433.534 895.049 433.213 895.832 432.876 896.655C375.561 1036.61 374.816 1202.98 374.152 1349.84C374.003 1382.78 373.875 1413.91 373.124 1444.17C372.859 1536.78 367.019 1609.26 355.711 1661.41L357.231 1662.03C368.726 1609.52 374.635 1536.68 374.898 1443.82C375.649 1413.56 375.777 1382.43 375.918 1349.46C376.579 1201.99 377.269 1034.88 435.43 894.84C436.145 893.093 436.852 891.367 437.559 889.64C518.898 691.015 607.842 626.921 686.371 570.355C694.668 564.374 702.505 558.72 710.377 552.893C757.181 518.225 791.426 486.458 817.456 435.364C845.121 381.025 859.489 311.28 862.148 217.427L860.427 216.722C857.852 310.68 843.579 380.37 816.003 434.535L815.972 434.522Z" fill="#8D9746"/>
<path d="M733.829 585.371C724.461 593.305 715.043 601.007 705.068 609.139C629.319 670.944 543.475 740.996 457.384 946.538C390.711 1101.3 390.042 1278.23 389.449 1434.33C389.359 1457.4 389.278 1479.22 388.98 1500.59C389.72 1575.54 387.911 1631.5 384.59 1673.25L386.048 1673.85C390.672 1616.67 391.24 1550.16 390.746 1500.21C391.052 1478.87 391.133 1457.05 391.216 1433.95C391.819 1278.09 392.498 1101.45 458.926 947.192C544.762 742.273 630.36 672.425 705.871 610.803C715.854 602.652 725.288 594.956 734.664 587.002C809.481 523.01 871.484 450.561 871.064 221.076L869.312 220.359C869.918 449.569 808.28 521.698 733.853 585.358L733.829 585.371Z" fill="#8D9746"/>
<path d="M746.336 602.844C736.167 612.068 725.864 621.002 714.964 630.466C641.1 694.52 557.37 767.102 469.341 973.045C397.9 1135.52 397.165 1325.03 396.563 1477.3C396.492 1495.16 396.425 1512.03 396.261 1528.7C397.171 1588.24 396.782 1637.74 395.475 1677.71L397.15 1678.39C398.648 1632.43 398.807 1579.56 398.027 1528.32C398.199 1511.68 398.266 1494.81 398.337 1476.95C398.934 1324.91 399.678 1135.73 470.882 973.746C558.666 768.359 642.173 695.967 715.83 632.11C726.746 622.652 737.049 613.718 747.249 604.46C788.888 566.178 821.261 528.417 843.863 468.583C867.192 406.796 877.424 328.185 875.63 222.968L873.831 222.232C877.958 461.369 818.51 536.551 746.367 602.857L746.336 602.844Z" fill="#8D9746"/>
<path d="M824.567 445.542C806.717 484.136 782.376 519.746 721.592 568.126C712.989 574.943 704.382 581.548 695.275 588.534C617.649 648.07 529.668 715.56 445.541 920.241C383.158 1067.67 382.553 1239.89 381.95 1391.85C381.844 1419.96 381.731 1446.5 381.248 1472.39C381.565 1553.14 378.166 1618.56 371.202 1667.75L373.016 1668.49C379.989 1619.28 383.343 1553.75 383.006 1472.03C383.505 1446.15 383.602 1419.6 383.716 1391.47C384.322 1239.77 384.954 1067.79 447.099 920.902C530.963 716.863 618.665 649.612 696.038 590.252C705.153 583.246 713.776 576.648 722.379 569.831C799.464 508.478 863.619 439.044 866.583 219.242L864.862 218.538C863.727 316.273 850.778 388.92 824.598 445.555L824.567 445.542Z" fill="#8D9746"/>
<path d="M759.103 620.564C748.092 631.271 736.845 641.624 724.938 652.575C652.944 718.824 571.338 793.916 481.418 999.789C404.722 1170.5 403.914 1364.78 403.258 1520.9C403.208 1533.09 403.162 1545.05 403.074 1556.76C403.984 1603.13 404.341 1645.1 404.383 1681.38L406.135 1682.1C406.097 1646.38 405.751 1603.85 404.818 1556.35C404.913 1544.67 404.95 1532.73 405.001 1520.53C405.643 1364.67 406.438 1170.68 482.935 1000.5C572.642 795.153 654.026 720.252 725.836 654.185C737.751 643.214 749.013 632.867 760.056 622.126C800.382 582.275 831.593 542.843 852.944 479.918C874.761 415.59 883.522 333.939 880.134 224.834L878.319 224.092C881.662 332.38 872.796 416.145 851.312 479.438C830.151 541.854 799.126 581.011 759.079 620.577L759.103 620.564Z" fill="#8D9746"/>
<path d="M807.537 423.639C777.881 476.648 737.151 507.448 697.96 534.448C690.809 539.398 683.709 544.181 676.196 549.264C594.854 604.257 502.678 666.56 422.336 868.453C367.686 1002.26 366.807 1164.8 366.048 1308.22C365.844 1345.85 365.658 1381.41 364.579 1415.92C363.643 1507.24 356.521 1580.51 343.403 1633.68C341.633 1640.83 339.752 1647.64 337.754 1654.11L339.304 1654.74C341.337 1648.14 343.267 1641.22 345.055 1633.94C358.216 1580.58 365.381 1507.11 366.32 1415.6C367.392 1381.06 367.578 1345.51 367.79 1307.85C368.56 1164.67 369.434 1002.41 423.887 869.088C503.838 667.972 595.767 605.873 676.816 551.066C684.329 545.983 691.438 541.179 698.588 536.229C737.994 509.059 778.986 478.061 808.91 424.576C837.957 372.654 853.618 305.806 857.673 215.618L855.968 214.92C851.998 305.166 836.448 371.919 807.522 423.632L807.537 423.639Z" fill="#8D9746"/>
<path d="M604.85 333.861C595.597 336.474 586.014 339.186 576.538 341.989C524.321 356.672 473.39 372.373 424.104 403.025C363.586 441.339 324.105 491.991 299.875 562.388C275.894 632.488 268.714 720.272 260.402 821.915C254.321 896.317 248.016 973.254 234.318 1052.81C215.419 1156.57 182.961 1246.18 137.854 1319.19C96.3537 1387.81 38.594 1451 -30.3147 1503.44L-28.361 1504.24C40.2585 1451.8 97.7974 1388.71 139.233 1320.2C184.525 1246.91 217.099 1156.98 236.076 1052.85C249.792 973.16 256.098 896.177 262.188 821.709C270.481 720.245 277.658 632.601 301.524 562.829C325.546 493.027 364.697 442.826 424.709 404.819C473.773 374.312 524.578 358.653 576.653 344.005C586.121 341.222 595.704 338.511 604.958 335.898C687.357 312.587 765.417 290.501 800.459 204.931C801.914 201.377 803.279 197.646 804.575 193.863L803.055 193.241C770.829 286.878 690.182 309.711 604.858 333.841L604.85 333.861Z" fill="#8D9746"/>
<path d="M760.74 361.21C726.418 397.142 683.418 418.012 634.844 439.718L625.337 444.055C533.512 485.873 429.412 533.262 358.474 720.016C321.238 824.824 317.826 957.167 314.533 1085.15C313.159 1138.55 311.732 1193.76 307.912 1246.73C300.317 1348.92 283.366 1428.16 256.007 1489C238.197 1529.44 214.77 1564.27 186.76 1592.31L188.512 1593.03C216.399 1564.89 239.739 1530.09 257.509 1489.71C284.968 1428.58 302.018 1349.05 309.636 1246.54C313.458 1193.48 314.892 1138.25 316.259 1084.83C319.556 957.054 322.956 824.918 360.026 720.557C430.6 534.826 534.211 487.659 625.633 446.029L635.14 441.691C683.911 419.902 727.101 398.922 761.702 362.706C781.762 341.707 797.597 317.009 809.683 287.496C819.533 263.443 826.884 236.164 831.989 205.129L830.376 204.469C819.146 273.318 796.827 323.399 760.7 361.217L760.74 361.21Z" fill="#8D9746"/>
<path d="M606.871 347.675C599.1 350.027 591.258 352.421 583.4 354.854C578.167 356.58 572.856 358.321 567.505 360.07C521.749 374.982 469.902 391.903 423.581 424.331C370.489 461.489 332.339 513.623 306.958 583.736C281.367 658.429 274.437 755.504 267.08 858.265C261.95 930.079 256.637 1004.33 244.901 1080.07C227.936 1183.61 197.883 1272.21 155.573 1343.39C117.289 1409.11 64.3938 1468.29 1.25616 1516.36L3.20989 1517.16C66.0666 1469.07 118.749 1409.96 156.944 1344.37C199.449 1272.9 229.618 1183.97 246.636 1080.08C258.398 1004.23 263.704 929.906 268.851 858.052C276.174 755.464 283.108 658.555 308.566 584.23C333.739 514.712 371.594 462.948 424.257 426.084C470.324 393.834 522.037 376.975 567.675 362.085C573.026 360.337 578.329 358.616 583.547 356.883C591.39 354.443 599.223 352.07 607.002 349.698C688.515 324.97 765.868 301.515 801.658 214.119C804.083 208.196 806.312 201.958 808.359 195.412L806.793 194.771C775.238 296.583 693.41 321.417 606.871 347.675Z" fill="#8D9746"/>
<path d="M600.44 294.806C586.432 297.888 571.938 301.098 557.57 304.571C510.374 315.308 455.705 329.128 404.257 357.277C343.095 391.507 304.161 437.108 281.794 500.836C262.661 562.278 252.166 639.234 244.425 706.416C242.906 718.922 241.428 731.726 239.907 744.771C231.836 814.303 222.687 893.146 203.13 972.16C177.801 1076.1 137.572 1168.5 83.5644 1246.8C33.5158 1321.05 -36.3851 1394.39 -124.357 1464.95L-122.45 1465.73C-34.8246 1395.31 34.8865 1322.08 84.8155 1247.94C139.008 1169.37 179.377 1076.67 204.79 972.394C224.397 893.213 233.556 814.304 241.628 744.678C243.15 731.634 244.619 718.85 246.146 706.323C253.87 639.274 264.346 562.452 283.403 501.284C305.546 438.237 344.095 393.088 404.735 359.16C455.97 331.135 510.497 317.351 557.599 306.622C571.967 303.149 586.438 299.953 600.445 296.871C682.536 278.779 760.08 261.709 793.882 189.557L793.131 189.18L792.341 188.856C759.047 259.856 681.997 276.824 600.424 294.8L600.44 294.806Z" fill="#8D9746"/>
<path d="M601.209 307.428C588.877 310.398 576.113 313.449 563.477 316.717C515.982 328.316 461.059 343.111 410.321 372.089C349.351 407.664 310.25 454.955 287.29 520.925C267.417 584.22 257.498 662.865 250.416 731.443C248.881 745.536 247.439 759.668 245.902 774.652C238.853 843.501 230.878 921.511 213.419 998.805C190.325 1102.77 152.795 1194.28 101.856 1270.84C54.6546 1343.44 -12.5538 1414.67 -93.1906 1477.71L-91.2524 1478.5C-10.945 1415.51 56.0262 1344.42 103.146 1271.97C154.286 1195.15 191.956 1103.29 215.111 999.005C232.596 921.558 240.582 843.435 247.64 774.519C249.169 759.556 250.619 745.404 252.154 731.31C259.226 662.846 269.118 584.354 288.892 521.346C311.636 456.038 350.367 409.205 410.816 373.933C461.34 345.077 516.122 330.319 563.515 318.748C576.15 315.481 588.899 312.423 601.231 309.453C684.785 289.381 763.727 270.399 797.342 190.879L795.791 190.245C762.646 268.573 684.222 287.439 601.187 307.396L601.209 307.428Z" fill="#8D9746"/>
<path d="M602.705 320.442C591.939 323.256 580.827 326.163 569.807 329.201C519.874 342.287 466.951 357.548 416.947 387.343C356.184 424.268 316.924 473.229 293.349 541.409C270.912 607.03 263.196 689.976 254.27 786.047C247.454 859.281 239.736 942.32 223.874 1025.71C202.932 1129.59 167.984 1220.19 119.988 1295C75.4306 1365.96 12.8917 1433.17 -61.8229 1490.55L-59.8847 1491.34C14.5088 1434 76.8341 1366.91 121.287 1296.07C169.453 1220.98 204.54 1130.08 225.544 1025.83C241.448 942.294 249.167 859.209 255.992 785.908C264.915 690.023 272.612 607.211 294.942 541.896C318.286 474.325 357.231 425.822 417.496 389.185C467.286 359.514 520.068 344.288 569.883 331.224C580.904 328.186 592.016 325.28 602.773 322.486C686.174 300.71 765.079 280.095 799.282 196.573C799.85 195.188 800.379 193.763 800.923 192.345L799.388 191.717C766.576 277.589 686.97 298.41 602.713 320.422L602.705 320.442Z" fill="#8D9746"/>
<path d="M616.378 410.313L610.838 412.523C515.798 450.212 408.118 492.947 339.697 673.113C306.952 767.265 302.52 883.928 297.816 1007.44C295.522 1067.69 293.156 1129.97 287.302 1190.73C276.908 1294.1 256.124 1375.8 223.779 1440.46C199.24 1490.52 166.173 1533.6 126.511 1567.63L128.372 1568.39C167.832 1534.28 200.75 1491.21 225.24 1441.27C257.732 1376.29 278.6 1294.3 289.049 1190.57C294.911 1129.75 297.278 1067.42 299.565 1007.15C304.257 883.842 308.686 767.364 341.273 673.64C409.275 494.499 516.48 452.038 611.095 414.504L616.627 412.314C669.048 392.135 711.972 374.235 747.4 343.163C773.111 320.609 792.553 293.027 806.629 258.655C813.667 241.469 819.348 222.555 823.809 201.759L822.228 201.112C791.831 342.758 706.535 375.62 616.354 410.327L616.378 410.313Z" fill="#8D9746"/>
<path d="M753.552 351.306C718.718 384.685 676.735 403.603 625.441 424.876L617.919 428.08C524.464 467.823 418.535 512.87 348.92 696.391C314.006 795.797 310.17 917.37 306.119 1046.1C304.331 1102.99 302.472 1161.82 297.706 1218.68C288.753 1321.5 269.901 1401.97 240.087 1464.74C218.95 1510.12 190.765 1549.1 156.996 1580.1L158.81 1580.85C192.425 1549.74 220.492 1510.78 241.589 1465.49C271.557 1402.44 290.477 1321.66 299.46 1218.51C304.228 1161.55 306.095 1102.7 307.877 1045.79C311.931 917.27 315.763 795.883 350.512 696.926C419.714 514.455 525.178 469.616 618.231 430.06L625.753 426.856C677.244 405.499 719.409 386.491 754.513 352.849C777.342 330.967 794.991 304.714 808.105 272.691C816.532 252.112 823.062 229.138 827.927 203.42L826.345 202.773C814.066 268.215 790.784 315.651 753.591 351.299L753.552 351.306Z" fill="#8D9746"/>
<path d="M610.265 361.888C603.868 363.981 597.423 366.102 590.946 368.257C585.592 370.145 580.169 372.027 574.682 373.931C529.253 389.681 477.746 407.538 431.612 441.191C378.742 479.752 340.426 533.483 314.475 605.52C287.179 684.953 280.851 787.057 274.152 895.151C269.883 964.2 265.441 1035.62 255.462 1107.51C240.139 1212.21 213.151 1297.3 172.999 1367.63C138.114 1429.96 90.1456 1485.16 32.8252 1529.28L34.7634 1530.08C91.8111 1485.91 139.575 1430.77 174.396 1368.55C214.725 1297.93 241.822 1212.53 257.198 1107.47C267.187 1035.46 271.63 964 275.9 894.905C282.58 786.991 288.904 685.073 316.068 606.008C373.873 445.62 480.656 408.612 574.868 375.953C580.354 374.049 585.778 372.167 591.124 370.299C597.577 368.158 604.022 366.037 610.419 363.943C690.493 337.735 766.592 312.83 802.892 224.189C806.354 215.736 809.437 206.66 812.149 196.986L810.598 196.352C779.926 306.355 697.475 333.372 610.257 361.908L610.265 361.888Z" fill="#8D9746"/>
<path d="M618.71 391.576C614.897 393.016 611.061 394.47 607.217 395.944C601.567 398.203 595.831 400.45 590.032 402.718C545.388 420.219 494.796 440.045 449.072 476.186C396.732 517.566 358.086 574.491 330.864 650.204C299.828 739.476 294.753 851.563 289.381 970.257C286.53 1033.32 283.572 1098.55 276.562 1162.79C264.656 1266.72 241.925 1349.59 207.079 1416.16C179.121 1470.63 141.125 1517.79 95.5686 1554.99L97.4603 1555.76C142.792 1518.5 180.622 1471.39 208.531 1417.03C243.54 1350.16 266.362 1266.97 278.315 1162.71C285.334 1098.4 288.292 1033.13 291.144 970.018C296.505 851.53 301.569 739.602 332.48 650.725C393.142 482.035 497.865 440.949 590.311 404.731C596.11 402.463 601.846 400.216 607.497 397.957C611.333 396.503 615.154 395.043 618.966 393.603C695.666 364.537 768.773 336.86 805.64 246.833C811.354 232.879 816.184 217.415 820.025 200.21L818.444 199.563C790.124 326.634 706.815 358.222 618.725 391.582L618.71 391.576Z" fill="#8D9746"/>
<path d="M614.229 376.521C609.151 378.311 604.034 380.108 598.9 381.945C593.402 384.008 587.834 386.066 582.212 388.125C537.156 404.731 486.068 423.557 440.135 458.441C387.527 498.398 349.046 553.726 322.47 627.641C293.357 711.909 287.655 819.028 281.623 932.435C278.108 998.581 274.453 1066.97 266.053 1135.05C252.488 1239.4 227.671 1323.39 190.2 1391.86C158.766 1450.44 115.788 1501.63 64.3249 1542.15L66.2476 1542.94C117.446 1502.36 160.259 1451.22 191.62 1392.76C229.269 1323.99 254.178 1239.69 267.781 1134.99C276.2 1066.81 279.855 998.382 283.371 932.189C289.399 818.968 295.097 712.035 324.079 628.135C383.227 463.538 489.073 424.529 582.445 390.12C588.076 388.041 593.644 385.983 599.134 383.94C604.259 382.122 609.361 380.319 614.439 378.529C692.892 350.884 767.582 324.559 804.236 235.054C808.799 223.911 812.757 211.77 816.072 198.546L814.49 197.899C784.914 316.321 701.965 345.572 614.222 376.495L614.229 376.521Z" fill="#8D9746"/>
</g>
</g>
<defs>
<clipPath id="clip0_30_506">
<rect width="720" height="1024" fill="white"/>
</clipPath>
<clipPath id="clip1_30_506">
<rect width="1528.29" height="573.17" fill="white" transform="matrix(-0.552934 0.833225 -0.833369 -0.552717 732.703 -394.475)"/>
</clipPath>
<clipPath id="clip2_30_506">
<rect width="1528.22" height="573.197" fill="white" transform="matrix(0.378967 -0.92541 0.925485 0.378784 -124.357 1464.95)"/>
</clipPath>
</defs>
</svg>
