<svg width="49" height="48" viewBox="0 0 49 48" fill="none" xmlns="http://www.w3.org/2000/svg">
<path d="M43.9492 11.8061C46.1848 15.4383 47.3801 19.6146 47.3691 23.8666C47.3691 36.7212 36.7664 47.14 23.6846 47.1401C10.6028 47.1401 0 36.7212 0 23.8666C8.60728e-05 19.6146 1.18404 15.4383 3.43066 11.8061L5.29004 13.644L7.24902 15.5698C4.54888 18.7453 4.54867 23.3562 7.24902 26.5317C10.3258 30.1531 15.8155 30.6312 19.501 27.6078L23.6846 31.7192L27.8789 27.5971C31.1106 30.2507 35.8034 30.2507 39.0352 27.5971C42.7206 24.5738 43.2076 19.1795 40.1309 15.558L43.9492 11.8061ZM7.34863 7.02289C16.8112 -1.84032 31.7963 -1.49282 40.8164 7.80511C41.4029 8.41401 41.9675 9.04517 42.4766 9.70843L23.6846 28.186L4.8916 9.70843C5.41173 9.04512 5.96524 8.41406 6.55176 7.80511C6.80619 7.54423 7.07208 7.28376 7.34863 7.02289ZM17.6855 25.8354C16.612 26.651 15.2832 27.0961 13.9219 27.0961C12.5607 27.096 11.2437 26.6508 10.1592 25.8461C7.46977 23.8016 6.97204 19.9947 9.05273 17.352L17.6855 25.8354ZM38.3154 17.3412C39.1455 18.3961 39.5996 19.7018 39.5996 21.0395C39.5996 22.3771 39.1454 23.6819 38.3154 24.7368C36.2347 27.3794 32.372 27.8692 29.6826 25.8246L38.3154 17.3412ZM23.6846 3.64007C18.1508 3.64007 12.9928 5.73972 9.11914 9.56781L23.6846 23.8793L38.249 9.56781C34.3755 5.73979 29.2182 3.64016 23.6846 3.64007Z" fill="white"/>
</svg>
